<mxfile host="app.diagrams.net" modified="2024-05-10T19:46:00.595Z" agent="Mozilla/5.0 (Windows NT 10.0; Win64; x64) AppleWebKit/537.36 (KHTML, like Gecko) Chrome/124.0.0.0 Safari/537.36 Edg/124.0.0.0" etag="Y6Y_xG6XFeYkf-NgJVjn" version="24.3.1" type="github">
  <diagram name="Page-1" id="KTZXpdnWKfrQpX5wNeiX">
    <mxGraphModel dx="1575" dy="1025" grid="1" gridSize="10" guides="1" tooltips="1" connect="1" arrows="1" fold="1" page="1" pageScale="1" pageWidth="850" pageHeight="1100" math="0" shadow="0">
      <root>
        <mxCell id="0" />
        <mxCell id="1" parent="0" />
        <mxCell id="FetatTO3gr9hhhK3egfX-1" value="Superviseur" style="shape=umlActor;verticalLabelPosition=bottom;verticalAlign=top;html=1;" parent="1" vertex="1">
          <mxGeometry x="110" y="90" width="30" height="60" as="geometry" />
        </mxCell>
        <mxCell id="FetatTO3gr9hhhK3egfX-2" value="Gestion Operation Use Case General" style="shape=umlFrame;whiteSpace=wrap;html=1;pointerEvents=0;recursiveResize=0;container=1;collapsible=0;width=160;" parent="1" vertex="1">
          <mxGeometry x="190" y="30" width="550" height="860" as="geometry" />
        </mxCell>
        <mxCell id="MK7afYL4_efToqdgsO7v-9" style="rounded=0;orthogonalLoop=1;jettySize=auto;html=1;endArrow=none;endFill=0;" edge="1" parent="FetatTO3gr9hhhK3egfX-2" source="FetatTO3gr9hhhK3egfX-3">
          <mxGeometry relative="1" as="geometry">
            <mxPoint x="-50" y="100" as="targetPoint" />
          </mxGeometry>
        </mxCell>
        <mxCell id="FetatTO3gr9hhhK3egfX-3" value="Lister les navires" style="ellipse;whiteSpace=wrap;html=1;" parent="FetatTO3gr9hhhK3egfX-2" vertex="1">
          <mxGeometry x="30" y="40" width="80" height="50" as="geometry" />
        </mxCell>
        <mxCell id="MK7afYL4_efToqdgsO7v-3" value="Lister les numéros de dossiers" style="ellipse;whiteSpace=wrap;html=1;" vertex="1" parent="FetatTO3gr9hhhK3egfX-2">
          <mxGeometry x="110" y="90" width="80" height="50" as="geometry" />
        </mxCell>
        <mxCell id="MK7afYL4_efToqdgsO7v-4" value="Lister les opérations" style="ellipse;whiteSpace=wrap;html=1;" vertex="1" parent="FetatTO3gr9hhhK3egfX-2">
          <mxGeometry x="100" y="150" width="80" height="50" as="geometry" />
        </mxCell>
        <mxCell id="MK7afYL4_efToqdgsO7v-5" value="Lister les équipements" style="ellipse;whiteSpace=wrap;html=1;" vertex="1" parent="FetatTO3gr9hhhK3egfX-2">
          <mxGeometry x="50" y="210" width="80" height="50" as="geometry" />
        </mxCell>
        <mxCell id="MK7afYL4_efToqdgsO7v-14" value="Gestion des navires" style="ellipse;whiteSpace=wrap;html=1;" vertex="1" parent="FetatTO3gr9hhhK3egfX-2">
          <mxGeometry x="40" y="300" width="80" height="50" as="geometry" />
        </mxCell>
        <mxCell id="MK7afYL4_efToqdgsO7v-20" style="rounded=0;orthogonalLoop=1;jettySize=auto;html=1;endArrow=none;endFill=0;" edge="1" parent="FetatTO3gr9hhhK3egfX-2" source="MK7afYL4_efToqdgsO7v-16">
          <mxGeometry relative="1" as="geometry">
            <mxPoint x="-70" y="470" as="targetPoint" />
          </mxGeometry>
        </mxCell>
        <mxCell id="MK7afYL4_efToqdgsO7v-16" value="Gestion numero de dossier" style="ellipse;whiteSpace=wrap;html=1;" vertex="1" parent="FetatTO3gr9hhhK3egfX-2">
          <mxGeometry x="140" y="330" width="80" height="50" as="geometry" />
        </mxCell>
        <mxCell id="MK7afYL4_efToqdgsO7v-17" value="Gestion des opérations" style="ellipse;whiteSpace=wrap;html=1;" vertex="1" parent="FetatTO3gr9hhhK3egfX-2">
          <mxGeometry x="180" y="400" width="80" height="50" as="geometry" />
        </mxCell>
        <mxCell id="MK7afYL4_efToqdgsO7v-22" style="rounded=0;orthogonalLoop=1;jettySize=auto;html=1;endArrow=none;endFill=0;" edge="1" parent="FetatTO3gr9hhhK3egfX-2" source="MK7afYL4_efToqdgsO7v-18">
          <mxGeometry relative="1" as="geometry">
            <mxPoint x="-60" y="480" as="targetPoint" />
          </mxGeometry>
        </mxCell>
        <mxCell id="MK7afYL4_efToqdgsO7v-18" value="Gestion des équipements" style="ellipse;whiteSpace=wrap;html=1;" vertex="1" parent="FetatTO3gr9hhhK3egfX-2">
          <mxGeometry x="130" y="495" width="80" height="50" as="geometry" />
        </mxCell>
        <mxCell id="MK7afYL4_efToqdgsO7v-27" value="Gestion client" style="ellipse;whiteSpace=wrap;html=1;" vertex="1" parent="FetatTO3gr9hhhK3egfX-2">
          <mxGeometry x="50" y="580" width="80" height="50" as="geometry" />
        </mxCell>
        <mxCell id="MK7afYL4_efToqdgsO7v-28" value="Gestion des produits" style="ellipse;whiteSpace=wrap;html=1;" vertex="1" parent="FetatTO3gr9hhhK3egfX-2">
          <mxGeometry x="90" y="660" width="80" height="50" as="geometry" />
        </mxCell>
        <mxCell id="MK7afYL4_efToqdgsO7v-29" value="Gestion quais" style="ellipse;whiteSpace=wrap;html=1;" vertex="1" parent="FetatTO3gr9hhhK3egfX-2">
          <mxGeometry x="110" y="750" width="80" height="50" as="geometry" />
        </mxCell>
        <mxCell id="MK7afYL4_efToqdgsO7v-1" value="Manager" style="shape=umlActor;verticalLabelPosition=bottom;verticalAlign=top;html=1;" vertex="1" parent="1">
          <mxGeometry x="100" y="460" width="30" height="60" as="geometry" />
        </mxCell>
        <mxCell id="MK7afYL4_efToqdgsO7v-2" value="Admin" style="shape=umlActor;verticalLabelPosition=bottom;verticalAlign=top;html=1;" vertex="1" parent="1">
          <mxGeometry x="100" y="760" width="30" height="60" as="geometry" />
        </mxCell>
        <mxCell id="MK7afYL4_efToqdgsO7v-6" style="rounded=0;orthogonalLoop=1;jettySize=auto;html=1;strokeColor=default;startArrow=none;startFill=0;endArrow=none;endFill=0;" edge="1" parent="1" source="MK7afYL4_efToqdgsO7v-4" target="FetatTO3gr9hhhK3egfX-1">
          <mxGeometry relative="1" as="geometry" />
        </mxCell>
        <mxCell id="MK7afYL4_efToqdgsO7v-8" style="rounded=0;orthogonalLoop=1;jettySize=auto;html=1;endArrow=none;endFill=0;" edge="1" parent="1" source="MK7afYL4_efToqdgsO7v-3" target="FetatTO3gr9hhhK3egfX-1">
          <mxGeometry relative="1" as="geometry" />
        </mxCell>
        <mxCell id="MK7afYL4_efToqdgsO7v-10" style="rounded=0;orthogonalLoop=1;jettySize=auto;html=1;entryX=1;entryY=1;entryDx=0;entryDy=0;entryPerimeter=0;endArrow=none;endFill=0;" edge="1" parent="1" source="MK7afYL4_efToqdgsO7v-5" target="FetatTO3gr9hhhK3egfX-1">
          <mxGeometry relative="1" as="geometry" />
        </mxCell>
        <mxCell id="MK7afYL4_efToqdgsO7v-13" value="" style="shape=flexArrow;endArrow=classic;html=1;rounded=0;exitX=0.5;exitY=0;exitDx=0;exitDy=0;exitPerimeter=0;strokeColor=#6c8ebf;fillColor=#dae8fc;" edge="1" parent="1" source="MK7afYL4_efToqdgsO7v-1" target="FetatTO3gr9hhhK3egfX-1">
          <mxGeometry width="50" height="50" relative="1" as="geometry">
            <mxPoint x="350" y="450" as="sourcePoint" />
            <mxPoint x="400" y="400" as="targetPoint" />
          </mxGeometry>
        </mxCell>
        <mxCell id="MK7afYL4_efToqdgsO7v-19" style="rounded=0;orthogonalLoop=1;jettySize=auto;html=1;entryX=0.631;entryY=0.704;entryDx=0;entryDy=0;entryPerimeter=0;endArrow=none;endFill=0;" edge="1" parent="1" source="MK7afYL4_efToqdgsO7v-14" target="MK7afYL4_efToqdgsO7v-1">
          <mxGeometry relative="1" as="geometry" />
        </mxCell>
        <mxCell id="MK7afYL4_efToqdgsO7v-21" style="rounded=0;orthogonalLoop=1;jettySize=auto;html=1;entryX=0.631;entryY=0.857;entryDx=0;entryDy=0;entryPerimeter=0;endArrow=none;endFill=0;" edge="1" parent="1" source="MK7afYL4_efToqdgsO7v-17" target="MK7afYL4_efToqdgsO7v-1">
          <mxGeometry relative="1" as="geometry" />
        </mxCell>
        <mxCell id="MK7afYL4_efToqdgsO7v-26" value="" style="endArrow=classic;html=1;rounded=0;exitX=0.75;exitY=0.1;exitDx=0;exitDy=0;exitPerimeter=0;shape=flexArrow;fillColor=#dae8fc;strokeColor=#6c8ebf;" edge="1" parent="1" source="MK7afYL4_efToqdgsO7v-2" target="MK7afYL4_efToqdgsO7v-1">
          <mxGeometry width="50" height="50" relative="1" as="geometry">
            <mxPoint x="310" y="840" as="sourcePoint" />
            <mxPoint x="360" y="790" as="targetPoint" />
          </mxGeometry>
        </mxCell>
        <mxCell id="MK7afYL4_efToqdgsO7v-30" style="rounded=0;orthogonalLoop=1;jettySize=auto;html=1;entryX=0.575;entryY=0.274;entryDx=0;entryDy=0;entryPerimeter=0;endArrow=none;endFill=0;" edge="1" parent="1" source="MK7afYL4_efToqdgsO7v-27" target="MK7afYL4_efToqdgsO7v-2">
          <mxGeometry relative="1" as="geometry" />
        </mxCell>
        <mxCell id="MK7afYL4_efToqdgsO7v-31" style="rounded=0;orthogonalLoop=1;jettySize=auto;html=1;entryX=1;entryY=0.3333333333333333;entryDx=0;entryDy=0;entryPerimeter=0;endArrow=none;endFill=0;" edge="1" parent="1" source="MK7afYL4_efToqdgsO7v-28" target="MK7afYL4_efToqdgsO7v-2">
          <mxGeometry relative="1" as="geometry" />
        </mxCell>
        <mxCell id="MK7afYL4_efToqdgsO7v-32" style="rounded=0;orthogonalLoop=1;jettySize=auto;html=1;endArrow=none;endFill=0;" edge="1" parent="1" source="MK7afYL4_efToqdgsO7v-29" target="MK7afYL4_efToqdgsO7v-2">
          <mxGeometry relative="1" as="geometry" />
        </mxCell>
        <mxCell id="MK7afYL4_efToqdgsO7v-33" value="Use case Superviseur" style="shape=umlFrame;whiteSpace=wrap;html=1;pointerEvents=0;recursiveResize=0;container=1;collapsible=0;width=160;" vertex="1" parent="1">
          <mxGeometry x="1080" y="70" width="820" height="830" as="geometry" />
        </mxCell>
        <mxCell id="MK7afYL4_efToqdgsO7v-35" value="Lister les navires" style="ellipse;whiteSpace=wrap;html=1;" vertex="1" parent="MK7afYL4_efToqdgsO7v-33">
          <mxGeometry x="90" y="70" width="80" height="50" as="geometry" />
        </mxCell>
        <mxCell id="MK7afYL4_efToqdgsO7v-38" style="rounded=0;orthogonalLoop=1;jettySize=auto;html=1;dashed=1;dashPattern=8 8;" edge="1" parent="MK7afYL4_efToqdgsO7v-33" source="MK7afYL4_efToqdgsO7v-36" target="MK7afYL4_efToqdgsO7v-35">
          <mxGeometry relative="1" as="geometry" />
        </mxCell>
        <mxCell id="MK7afYL4_efToqdgsO7v-39" value="Extends" style="edgeLabel;html=1;align=center;verticalAlign=middle;resizable=0;points=[];" vertex="1" connectable="0" parent="MK7afYL4_efToqdgsO7v-38">
          <mxGeometry x="0.0337" y="1" relative="1" as="geometry">
            <mxPoint as="offset" />
          </mxGeometry>
        </mxCell>
        <mxCell id="MK7afYL4_efToqdgsO7v-36" value="Voir informations navire" style="ellipse;whiteSpace=wrap;html=1;" vertex="1" parent="MK7afYL4_efToqdgsO7v-33">
          <mxGeometry x="320" y="100" width="80" height="50" as="geometry" />
        </mxCell>
        <mxCell id="MK7afYL4_efToqdgsO7v-40" value="Lister numéro de dossiers" style="ellipse;whiteSpace=wrap;html=1;" vertex="1" parent="MK7afYL4_efToqdgsO7v-33">
          <mxGeometry x="130" y="230" width="80" height="50" as="geometry" />
        </mxCell>
        <mxCell id="MK7afYL4_efToqdgsO7v-41" style="rounded=0;orthogonalLoop=1;jettySize=auto;html=1;dashed=1;dashPattern=8 8;" edge="1" parent="MK7afYL4_efToqdgsO7v-33" source="MK7afYL4_efToqdgsO7v-43" target="MK7afYL4_efToqdgsO7v-40">
          <mxGeometry relative="1" as="geometry" />
        </mxCell>
        <mxCell id="MK7afYL4_efToqdgsO7v-42" value="Extends" style="edgeLabel;html=1;align=center;verticalAlign=middle;resizable=0;points=[];" vertex="1" connectable="0" parent="MK7afYL4_efToqdgsO7v-41">
          <mxGeometry x="0.0337" y="1" relative="1" as="geometry">
            <mxPoint as="offset" />
          </mxGeometry>
        </mxCell>
        <mxCell id="MK7afYL4_efToqdgsO7v-43" value="voir informations d&#39;un numéro de dossier" style="ellipse;whiteSpace=wrap;html=1;" vertex="1" parent="MK7afYL4_efToqdgsO7v-33">
          <mxGeometry x="340" y="210" width="110" height="80" as="geometry" />
        </mxCell>
        <mxCell id="MK7afYL4_efToqdgsO7v-45" value="Lister les opérations" style="ellipse;whiteSpace=wrap;html=1;" vertex="1" parent="MK7afYL4_efToqdgsO7v-33">
          <mxGeometry x="130" y="430" width="80" height="50" as="geometry" />
        </mxCell>
        <mxCell id="MK7afYL4_efToqdgsO7v-46" style="rounded=0;orthogonalLoop=1;jettySize=auto;html=1;dashed=1;dashPattern=8 8;" edge="1" parent="MK7afYL4_efToqdgsO7v-33" source="MK7afYL4_efToqdgsO7v-48" target="MK7afYL4_efToqdgsO7v-45">
          <mxGeometry relative="1" as="geometry" />
        </mxCell>
        <mxCell id="MK7afYL4_efToqdgsO7v-47" value="Extends" style="edgeLabel;html=1;align=center;verticalAlign=middle;resizable=0;points=[];" vertex="1" connectable="0" parent="MK7afYL4_efToqdgsO7v-46">
          <mxGeometry x="0.0337" y="1" relative="1" as="geometry">
            <mxPoint as="offset" />
          </mxGeometry>
        </mxCell>
        <mxCell id="MK7afYL4_efToqdgsO7v-48" value="Voir informations d&#39;une opération" style="ellipse;whiteSpace=wrap;html=1;" vertex="1" parent="MK7afYL4_efToqdgsO7v-33">
          <mxGeometry x="300" y="350" width="110" height="70" as="geometry" />
        </mxCell>
        <mxCell id="MK7afYL4_efToqdgsO7v-51" style="rounded=0;orthogonalLoop=1;jettySize=auto;html=1;dashed=1;dashPattern=8 8;" edge="1" parent="MK7afYL4_efToqdgsO7v-33" source="MK7afYL4_efToqdgsO7v-50" target="MK7afYL4_efToqdgsO7v-48">
          <mxGeometry relative="1" as="geometry" />
        </mxCell>
        <mxCell id="MK7afYL4_efToqdgsO7v-54" value="Extends" style="edgeLabel;html=1;align=center;verticalAlign=middle;resizable=0;points=[];" vertex="1" connectable="0" parent="MK7afYL4_efToqdgsO7v-51">
          <mxGeometry x="-0.0638" y="-2" relative="1" as="geometry">
            <mxPoint x="1" as="offset" />
          </mxGeometry>
        </mxCell>
        <mxCell id="MK7afYL4_efToqdgsO7v-50" value="Lister les arrêts" style="ellipse;whiteSpace=wrap;html=1;" vertex="1" parent="MK7afYL4_efToqdgsO7v-33">
          <mxGeometry x="510" y="340" width="110" height="70" as="geometry" />
        </mxCell>
        <mxCell id="MK7afYL4_efToqdgsO7v-53" style="rounded=0;orthogonalLoop=1;jettySize=auto;html=1;entryX=1;entryY=0.5;entryDx=0;entryDy=0;dashed=1;" edge="1" parent="MK7afYL4_efToqdgsO7v-33" source="MK7afYL4_efToqdgsO7v-52" target="MK7afYL4_efToqdgsO7v-50">
          <mxGeometry relative="1" as="geometry" />
        </mxCell>
        <mxCell id="MK7afYL4_efToqdgsO7v-55" value="Extends" style="edgeLabel;html=1;align=center;verticalAlign=middle;resizable=0;points=[];" vertex="1" connectable="0" parent="MK7afYL4_efToqdgsO7v-53">
          <mxGeometry x="-0.0838" y="2" relative="1" as="geometry">
            <mxPoint as="offset" />
          </mxGeometry>
        </mxCell>
        <mxCell id="MK7afYL4_efToqdgsO7v-52" value="Voir informations d&#39;un arrêt" style="ellipse;whiteSpace=wrap;html=1;" vertex="1" parent="MK7afYL4_efToqdgsO7v-33">
          <mxGeometry x="680" y="240" width="110" height="70" as="geometry" />
        </mxCell>
        <mxCell id="MK7afYL4_efToqdgsO7v-60" style="rounded=0;orthogonalLoop=1;jettySize=auto;html=1;dashed=1;dashPattern=8 8;" edge="1" parent="MK7afYL4_efToqdgsO7v-33" source="MK7afYL4_efToqdgsO7v-56" target="MK7afYL4_efToqdgsO7v-48">
          <mxGeometry relative="1" as="geometry" />
        </mxCell>
        <mxCell id="MK7afYL4_efToqdgsO7v-61" value="Extends" style="edgeLabel;html=1;align=center;verticalAlign=middle;resizable=0;points=[];" vertex="1" connectable="0" parent="MK7afYL4_efToqdgsO7v-60">
          <mxGeometry x="0.2234" y="6" relative="1" as="geometry">
            <mxPoint y="-1" as="offset" />
          </mxGeometry>
        </mxCell>
        <mxCell id="MK7afYL4_efToqdgsO7v-56" value="Lister les materiels d&#39;une opération" style="ellipse;whiteSpace=wrap;html=1;" vertex="1" parent="MK7afYL4_efToqdgsO7v-33">
          <mxGeometry x="500" y="480" width="110" height="70" as="geometry" />
        </mxCell>
        <mxCell id="MK7afYL4_efToqdgsO7v-62" value="Lister les équipements" style="ellipse;whiteSpace=wrap;html=1;" vertex="1" parent="MK7afYL4_efToqdgsO7v-33">
          <mxGeometry x="115" y="560" width="80" height="50" as="geometry" />
        </mxCell>
        <mxCell id="MK7afYL4_efToqdgsO7v-65" style="rounded=0;orthogonalLoop=1;jettySize=auto;html=1;entryX=1;entryY=0.5;entryDx=0;entryDy=0;dashed=1;dashPattern=8 8;" edge="1" parent="MK7afYL4_efToqdgsO7v-33" source="MK7afYL4_efToqdgsO7v-64" target="MK7afYL4_efToqdgsO7v-62">
          <mxGeometry relative="1" as="geometry" />
        </mxCell>
        <mxCell id="MK7afYL4_efToqdgsO7v-66" value="extends" style="edgeLabel;html=1;align=center;verticalAlign=middle;resizable=0;points=[];" vertex="1" connectable="0" parent="MK7afYL4_efToqdgsO7v-65">
          <mxGeometry x="-0.1112" y="1" relative="1" as="geometry">
            <mxPoint as="offset" />
          </mxGeometry>
        </mxCell>
        <mxCell id="MK7afYL4_efToqdgsO7v-64" value="Voir information équipement" style="ellipse;whiteSpace=wrap;html=1;" vertex="1" parent="MK7afYL4_efToqdgsO7v-33">
          <mxGeometry x="290" y="630" width="100" height="70" as="geometry" />
        </mxCell>
        <mxCell id="MK7afYL4_efToqdgsO7v-34" value="Superviseur" style="shape=umlActor;verticalLabelPosition=bottom;verticalAlign=top;html=1;" vertex="1" parent="1">
          <mxGeometry x="920" y="380" width="30" height="60" as="geometry" />
        </mxCell>
        <mxCell id="MK7afYL4_efToqdgsO7v-37" style="rounded=0;orthogonalLoop=1;jettySize=auto;html=1;entryX=0.5;entryY=0;entryDx=0;entryDy=0;entryPerimeter=0;endArrow=none;endFill=0;" edge="1" parent="1" source="MK7afYL4_efToqdgsO7v-35" target="MK7afYL4_efToqdgsO7v-34">
          <mxGeometry relative="1" as="geometry" />
        </mxCell>
        <mxCell id="MK7afYL4_efToqdgsO7v-44" style="rounded=0;orthogonalLoop=1;jettySize=auto;html=1;entryX=1;entryY=0.3333333333333333;entryDx=0;entryDy=0;entryPerimeter=0;endArrow=none;endFill=0;" edge="1" parent="1" source="MK7afYL4_efToqdgsO7v-40" target="MK7afYL4_efToqdgsO7v-34">
          <mxGeometry relative="1" as="geometry" />
        </mxCell>
        <mxCell id="MK7afYL4_efToqdgsO7v-49" style="rounded=0;orthogonalLoop=1;jettySize=auto;html=1;endArrow=none;endFill=0;" edge="1" parent="1" source="MK7afYL4_efToqdgsO7v-45" target="MK7afYL4_efToqdgsO7v-34">
          <mxGeometry relative="1" as="geometry" />
        </mxCell>
        <mxCell id="MK7afYL4_efToqdgsO7v-63" style="rounded=0;orthogonalLoop=1;jettySize=auto;html=1;entryX=1;entryY=1;entryDx=0;entryDy=0;entryPerimeter=0;endArrow=none;endFill=0;" edge="1" parent="1" source="MK7afYL4_efToqdgsO7v-62" target="MK7afYL4_efToqdgsO7v-34">
          <mxGeometry relative="1" as="geometry" />
        </mxCell>
        <mxCell id="MK7afYL4_efToqdgsO7v-67" value="Use case Manager" style="shape=umlFrame;whiteSpace=wrap;html=1;pointerEvents=0;recursiveResize=0;container=1;collapsible=0;width=160;" vertex="1" parent="1">
          <mxGeometry x="2400" y="90" width="820" height="1590" as="geometry" />
        </mxCell>
        <mxCell id="MK7afYL4_efToqdgsO7v-68" value="Lister les navires" style="ellipse;whiteSpace=wrap;html=1;" vertex="1" parent="MK7afYL4_efToqdgsO7v-67">
          <mxGeometry x="90" y="70" width="80" height="50" as="geometry" />
        </mxCell>
        <mxCell id="MK7afYL4_efToqdgsO7v-69" style="rounded=0;orthogonalLoop=1;jettySize=auto;html=1;dashed=1;dashPattern=8 8;" edge="1" parent="MK7afYL4_efToqdgsO7v-67" source="MK7afYL4_efToqdgsO7v-71" target="MK7afYL4_efToqdgsO7v-68">
          <mxGeometry relative="1" as="geometry" />
        </mxCell>
        <mxCell id="MK7afYL4_efToqdgsO7v-70" value="Extends" style="edgeLabel;html=1;align=center;verticalAlign=middle;resizable=0;points=[];" vertex="1" connectable="0" parent="MK7afYL4_efToqdgsO7v-69">
          <mxGeometry x="0.0337" y="1" relative="1" as="geometry">
            <mxPoint as="offset" />
          </mxGeometry>
        </mxCell>
        <mxCell id="MK7afYL4_efToqdgsO7v-71" value="Voir informations navire" style="ellipse;whiteSpace=wrap;html=1;" vertex="1" parent="MK7afYL4_efToqdgsO7v-67">
          <mxGeometry x="280" y="20" width="80" height="50" as="geometry" />
        </mxCell>
        <mxCell id="MK7afYL4_efToqdgsO7v-85" value="Voir informations d&#39;un arrêt" style="ellipse;whiteSpace=wrap;html=1;" vertex="1" parent="MK7afYL4_efToqdgsO7v-67">
          <mxGeometry x="660" y="680" width="110" height="70" as="geometry" />
        </mxCell>
        <mxCell id="MK7afYL4_efToqdgsO7v-129" value="Modifier informations navire" style="ellipse;whiteSpace=wrap;html=1;" vertex="1" parent="MK7afYL4_efToqdgsO7v-67">
          <mxGeometry x="300" y="90" width="80" height="50" as="geometry" />
        </mxCell>
        <mxCell id="MK7afYL4_efToqdgsO7v-134" value="Ajouter informations navire" style="ellipse;whiteSpace=wrap;html=1;" vertex="1" parent="MK7afYL4_efToqdgsO7v-67">
          <mxGeometry x="230" y="140" width="80" height="50" as="geometry" />
        </mxCell>
        <mxCell id="MK7afYL4_efToqdgsO7v-132" style="rounded=0;orthogonalLoop=1;jettySize=auto;html=1;dashed=1;dashPattern=8 8;exitX=0;exitY=0.5;exitDx=0;exitDy=0;entryX=1;entryY=1;entryDx=0;entryDy=0;" edge="1" parent="MK7afYL4_efToqdgsO7v-67" source="MK7afYL4_efToqdgsO7v-134" target="MK7afYL4_efToqdgsO7v-68">
          <mxGeometry relative="1" as="geometry">
            <mxPoint x="303" y="75" as="sourcePoint" />
            <mxPoint x="187" y="105" as="targetPoint" />
          </mxGeometry>
        </mxCell>
        <mxCell id="MK7afYL4_efToqdgsO7v-133" value="Extends" style="edgeLabel;html=1;align=center;verticalAlign=middle;resizable=0;points=[];" vertex="1" connectable="0" parent="MK7afYL4_efToqdgsO7v-132">
          <mxGeometry x="0.0337" y="1" relative="1" as="geometry">
            <mxPoint as="offset" />
          </mxGeometry>
        </mxCell>
        <mxCell id="MK7afYL4_efToqdgsO7v-135" value="Lister les numéro de dossier" style="ellipse;whiteSpace=wrap;html=1;" vertex="1" parent="MK7afYL4_efToqdgsO7v-67">
          <mxGeometry x="160" y="260" width="80" height="50" as="geometry" />
        </mxCell>
        <mxCell id="MK7afYL4_efToqdgsO7v-136" style="rounded=0;orthogonalLoop=1;jettySize=auto;html=1;dashed=1;dashPattern=8 8;" edge="1" parent="MK7afYL4_efToqdgsO7v-67" source="MK7afYL4_efToqdgsO7v-138" target="MK7afYL4_efToqdgsO7v-135">
          <mxGeometry relative="1" as="geometry" />
        </mxCell>
        <mxCell id="MK7afYL4_efToqdgsO7v-137" value="Extends" style="edgeLabel;html=1;align=center;verticalAlign=middle;resizable=0;points=[];" vertex="1" connectable="0" parent="MK7afYL4_efToqdgsO7v-136">
          <mxGeometry x="0.0337" y="1" relative="1" as="geometry">
            <mxPoint as="offset" />
          </mxGeometry>
        </mxCell>
        <mxCell id="MK7afYL4_efToqdgsO7v-138" value="Voir informations nnuméro" style="ellipse;whiteSpace=wrap;html=1;" vertex="1" parent="MK7afYL4_efToqdgsO7v-67">
          <mxGeometry x="350" y="210" width="80" height="50" as="geometry" />
        </mxCell>
        <mxCell id="MK7afYL4_efToqdgsO7v-139" value="Modifier informations numéro" style="ellipse;whiteSpace=wrap;html=1;" vertex="1" parent="MK7afYL4_efToqdgsO7v-67">
          <mxGeometry x="370" y="280" width="80" height="50" as="geometry" />
        </mxCell>
        <mxCell id="MK7afYL4_efToqdgsO7v-140" value="Ajouter informations numéro" style="ellipse;whiteSpace=wrap;html=1;" vertex="1" parent="MK7afYL4_efToqdgsO7v-67">
          <mxGeometry x="300" y="330" width="80" height="50" as="geometry" />
        </mxCell>
        <mxCell id="MK7afYL4_efToqdgsO7v-141" style="rounded=0;orthogonalLoop=1;jettySize=auto;html=1;dashed=1;dashPattern=8 8;exitX=0;exitY=0.5;exitDx=0;exitDy=0;entryX=1;entryY=1;entryDx=0;entryDy=0;" edge="1" parent="MK7afYL4_efToqdgsO7v-67" source="MK7afYL4_efToqdgsO7v-140" target="MK7afYL4_efToqdgsO7v-135">
          <mxGeometry relative="1" as="geometry">
            <mxPoint x="373" y="265" as="sourcePoint" />
            <mxPoint x="257" y="295" as="targetPoint" />
          </mxGeometry>
        </mxCell>
        <mxCell id="MK7afYL4_efToqdgsO7v-142" value="Extends" style="edgeLabel;html=1;align=center;verticalAlign=middle;resizable=0;points=[];" vertex="1" connectable="0" parent="MK7afYL4_efToqdgsO7v-141">
          <mxGeometry x="0.0337" y="1" relative="1" as="geometry">
            <mxPoint as="offset" />
          </mxGeometry>
        </mxCell>
        <mxCell id="MK7afYL4_efToqdgsO7v-143" style="rounded=0;orthogonalLoop=1;jettySize=auto;html=1;dashed=1;dashPattern=8 8;exitX=0;exitY=0.5;exitDx=0;exitDy=0;" edge="1" parent="MK7afYL4_efToqdgsO7v-67" source="MK7afYL4_efToqdgsO7v-139">
          <mxGeometry relative="1" as="geometry">
            <mxPoint x="363" y="255" as="sourcePoint" />
            <mxPoint x="240" y="290" as="targetPoint" />
          </mxGeometry>
        </mxCell>
        <mxCell id="MK7afYL4_efToqdgsO7v-144" value="Extends" style="edgeLabel;html=1;align=center;verticalAlign=middle;resizable=0;points=[];" vertex="1" connectable="0" parent="MK7afYL4_efToqdgsO7v-143">
          <mxGeometry x="0.0337" y="1" relative="1" as="geometry">
            <mxPoint as="offset" />
          </mxGeometry>
        </mxCell>
        <mxCell id="MK7afYL4_efToqdgsO7v-146" value="Lier un navire" style="ellipse;whiteSpace=wrap;html=1;" vertex="1" parent="MK7afYL4_efToqdgsO7v-67">
          <mxGeometry x="567.5" y="300" width="80" height="50" as="geometry" />
        </mxCell>
        <mxCell id="MK7afYL4_efToqdgsO7v-147" style="rounded=0;orthogonalLoop=1;jettySize=auto;html=1;dashed=1;dashPattern=8 8;exitX=0.028;exitY=0.695;exitDx=0;exitDy=0;entryX=1;entryY=0.5;entryDx=0;entryDy=0;startArrow=classic;startFill=1;endArrow=none;endFill=0;exitPerimeter=0;" edge="1" parent="MK7afYL4_efToqdgsO7v-67" source="MK7afYL4_efToqdgsO7v-146" target="MK7afYL4_efToqdgsO7v-140">
          <mxGeometry relative="1" as="geometry">
            <mxPoint x="163" y="272" as="sourcePoint" />
            <mxPoint x="180" y="300" as="targetPoint" />
          </mxGeometry>
        </mxCell>
        <mxCell id="MK7afYL4_efToqdgsO7v-148" value="Include" style="edgeLabel;html=1;align=center;verticalAlign=middle;resizable=0;points=[];" vertex="1" connectable="0" parent="MK7afYL4_efToqdgsO7v-147">
          <mxGeometry x="0.0337" y="1" relative="1" as="geometry">
            <mxPoint as="offset" />
          </mxGeometry>
        </mxCell>
        <mxCell id="MK7afYL4_efToqdgsO7v-150" value="Lister les équipement" style="ellipse;whiteSpace=wrap;html=1;" vertex="1" parent="MK7afYL4_efToqdgsO7v-67">
          <mxGeometry x="90" y="510" width="80" height="50" as="geometry" />
        </mxCell>
        <mxCell id="MK7afYL4_efToqdgsO7v-151" style="rounded=0;orthogonalLoop=1;jettySize=auto;html=1;dashed=1;dashPattern=8 8;" edge="1" parent="MK7afYL4_efToqdgsO7v-67" source="MK7afYL4_efToqdgsO7v-153" target="MK7afYL4_efToqdgsO7v-150">
          <mxGeometry relative="1" as="geometry" />
        </mxCell>
        <mxCell id="MK7afYL4_efToqdgsO7v-152" value="Extends" style="edgeLabel;html=1;align=center;verticalAlign=middle;resizable=0;points=[];" vertex="1" connectable="0" parent="MK7afYL4_efToqdgsO7v-151">
          <mxGeometry x="0.0337" y="1" relative="1" as="geometry">
            <mxPoint as="offset" />
          </mxGeometry>
        </mxCell>
        <mxCell id="MK7afYL4_efToqdgsO7v-153" value="Voir informations équipement" style="ellipse;whiteSpace=wrap;html=1;" vertex="1" parent="MK7afYL4_efToqdgsO7v-67">
          <mxGeometry x="270" y="440" width="80" height="50" as="geometry" />
        </mxCell>
        <mxCell id="MK7afYL4_efToqdgsO7v-154" value="Modifier informations équipement" style="ellipse;whiteSpace=wrap;html=1;" vertex="1" parent="MK7afYL4_efToqdgsO7v-67">
          <mxGeometry x="300" y="530" width="90" height="60" as="geometry" />
        </mxCell>
        <mxCell id="MK7afYL4_efToqdgsO7v-155" value="Ajouter informations équipement" style="ellipse;whiteSpace=wrap;html=1;" vertex="1" parent="MK7afYL4_efToqdgsO7v-67">
          <mxGeometry x="230" y="600" width="100" height="80" as="geometry" />
        </mxCell>
        <mxCell id="MK7afYL4_efToqdgsO7v-156" style="rounded=0;orthogonalLoop=1;jettySize=auto;html=1;dashed=1;dashPattern=8 8;exitX=0;exitY=0.5;exitDx=0;exitDy=0;entryX=1;entryY=1;entryDx=0;entryDy=0;" edge="1" parent="MK7afYL4_efToqdgsO7v-67" source="MK7afYL4_efToqdgsO7v-155" target="MK7afYL4_efToqdgsO7v-150">
          <mxGeometry relative="1" as="geometry">
            <mxPoint x="303" y="515" as="sourcePoint" />
            <mxPoint x="187" y="545" as="targetPoint" />
          </mxGeometry>
        </mxCell>
        <mxCell id="MK7afYL4_efToqdgsO7v-157" value="Extends" style="edgeLabel;html=1;align=center;verticalAlign=middle;resizable=0;points=[];" vertex="1" connectable="0" parent="MK7afYL4_efToqdgsO7v-156">
          <mxGeometry x="0.0337" y="1" relative="1" as="geometry">
            <mxPoint as="offset" />
          </mxGeometry>
        </mxCell>
        <mxCell id="MK7afYL4_efToqdgsO7v-158" style="rounded=0;orthogonalLoop=1;jettySize=auto;html=1;dashed=1;dashPattern=8 8;exitX=0;exitY=0.5;exitDx=0;exitDy=0;" edge="1" parent="MK7afYL4_efToqdgsO7v-67" source="MK7afYL4_efToqdgsO7v-154">
          <mxGeometry relative="1" as="geometry">
            <mxPoint x="293" y="505" as="sourcePoint" />
            <mxPoint x="170" y="540" as="targetPoint" />
          </mxGeometry>
        </mxCell>
        <mxCell id="MK7afYL4_efToqdgsO7v-159" value="Extends" style="edgeLabel;html=1;align=center;verticalAlign=middle;resizable=0;points=[];" vertex="1" connectable="0" parent="MK7afYL4_efToqdgsO7v-158">
          <mxGeometry x="0.0337" y="1" relative="1" as="geometry">
            <mxPoint as="offset" />
          </mxGeometry>
        </mxCell>
        <mxCell id="MK7afYL4_efToqdgsO7v-76" value="Gestion les opérations" style="ellipse;whiteSpace=wrap;html=1;" vertex="1" parent="MK7afYL4_efToqdgsO7v-67">
          <mxGeometry x="80" y="900" width="80" height="50" as="geometry" />
        </mxCell>
        <mxCell id="MK7afYL4_efToqdgsO7v-79" value="Voir informations d&#39;une opération" style="ellipse;whiteSpace=wrap;html=1;" vertex="1" parent="MK7afYL4_efToqdgsO7v-67">
          <mxGeometry x="190" y="760" width="110" height="70" as="geometry" />
        </mxCell>
        <mxCell id="MK7afYL4_efToqdgsO7v-77" style="rounded=0;orthogonalLoop=1;jettySize=auto;html=1;dashed=1;dashPattern=8 8;" edge="1" parent="MK7afYL4_efToqdgsO7v-67" source="MK7afYL4_efToqdgsO7v-79" target="MK7afYL4_efToqdgsO7v-76">
          <mxGeometry relative="1" as="geometry" />
        </mxCell>
        <mxCell id="MK7afYL4_efToqdgsO7v-78" value="Extends" style="edgeLabel;html=1;align=center;verticalAlign=middle;resizable=0;points=[];" vertex="1" connectable="0" parent="MK7afYL4_efToqdgsO7v-77">
          <mxGeometry x="0.0337" y="1" relative="1" as="geometry">
            <mxPoint as="offset" />
          </mxGeometry>
        </mxCell>
        <mxCell id="MK7afYL4_efToqdgsO7v-82" value="Lister les arrêts" style="ellipse;whiteSpace=wrap;html=1;" vertex="1" parent="MK7afYL4_efToqdgsO7v-67">
          <mxGeometry x="450" y="730" width="110" height="70" as="geometry" />
        </mxCell>
        <mxCell id="MK7afYL4_efToqdgsO7v-80" style="rounded=0;orthogonalLoop=1;jettySize=auto;html=1;dashed=1;dashPattern=8 8;" edge="1" parent="MK7afYL4_efToqdgsO7v-67" source="MK7afYL4_efToqdgsO7v-82" target="MK7afYL4_efToqdgsO7v-79">
          <mxGeometry relative="1" as="geometry" />
        </mxCell>
        <mxCell id="MK7afYL4_efToqdgsO7v-81" value="Extends" style="edgeLabel;html=1;align=center;verticalAlign=middle;resizable=0;points=[];" vertex="1" connectable="0" parent="MK7afYL4_efToqdgsO7v-80">
          <mxGeometry x="-0.0638" y="-2" relative="1" as="geometry">
            <mxPoint x="1" as="offset" />
          </mxGeometry>
        </mxCell>
        <mxCell id="MK7afYL4_efToqdgsO7v-83" style="rounded=0;orthogonalLoop=1;jettySize=auto;html=1;entryX=1;entryY=0.5;entryDx=0;entryDy=0;dashed=1;exitX=0;exitY=1;exitDx=0;exitDy=0;" edge="1" parent="MK7afYL4_efToqdgsO7v-67" source="MK7afYL4_efToqdgsO7v-85" target="MK7afYL4_efToqdgsO7v-82">
          <mxGeometry relative="1" as="geometry">
            <mxPoint x="667.7499776088753" y="903.351668036154" as="sourcePoint" />
          </mxGeometry>
        </mxCell>
        <mxCell id="MK7afYL4_efToqdgsO7v-84" value="Extends" style="edgeLabel;html=1;align=center;verticalAlign=middle;resizable=0;points=[];" vertex="1" connectable="0" parent="MK7afYL4_efToqdgsO7v-83">
          <mxGeometry x="-0.0838" y="2" relative="1" as="geometry">
            <mxPoint as="offset" />
          </mxGeometry>
        </mxCell>
        <mxCell id="MK7afYL4_efToqdgsO7v-88" value="Lister les materiels d&#39;une opération" style="ellipse;whiteSpace=wrap;html=1;" vertex="1" parent="MK7afYL4_efToqdgsO7v-67">
          <mxGeometry x="500" y="850" width="110" height="70" as="geometry" />
        </mxCell>
        <mxCell id="MK7afYL4_efToqdgsO7v-86" style="rounded=0;orthogonalLoop=1;jettySize=auto;html=1;dashed=1;dashPattern=8 8;" edge="1" parent="MK7afYL4_efToqdgsO7v-67" source="MK7afYL4_efToqdgsO7v-88" target="MK7afYL4_efToqdgsO7v-79">
          <mxGeometry relative="1" as="geometry" />
        </mxCell>
        <mxCell id="MK7afYL4_efToqdgsO7v-87" value="Extends" style="edgeLabel;html=1;align=center;verticalAlign=middle;resizable=0;points=[];" vertex="1" connectable="0" parent="MK7afYL4_efToqdgsO7v-86">
          <mxGeometry x="0.2234" y="6" relative="1" as="geometry">
            <mxPoint y="-1" as="offset" />
          </mxGeometry>
        </mxCell>
        <mxCell id="MK7afYL4_efToqdgsO7v-178" style="rounded=0;orthogonalLoop=1;jettySize=auto;html=1;dashed=1;dashPattern=8 8;endArrow=classic;endFill=1;startArrow=none;startFill=0;" edge="1" parent="MK7afYL4_efToqdgsO7v-67" source="MK7afYL4_efToqdgsO7v-163" target="MK7afYL4_efToqdgsO7v-177">
          <mxGeometry relative="1" as="geometry" />
        </mxCell>
        <mxCell id="MK7afYL4_efToqdgsO7v-179" value="Include" style="edgeLabel;html=1;align=center;verticalAlign=middle;resizable=0;points=[];" vertex="1" connectable="0" parent="MK7afYL4_efToqdgsO7v-178">
          <mxGeometry x="-0.0249" relative="1" as="geometry">
            <mxPoint x="-1" as="offset" />
          </mxGeometry>
        </mxCell>
        <mxCell id="MK7afYL4_efToqdgsO7v-163" value="Ajout d&#39;une opération" style="ellipse;whiteSpace=wrap;html=1;" vertex="1" parent="MK7afYL4_efToqdgsO7v-67">
          <mxGeometry x="230" y="990" width="110" height="70" as="geometry" />
        </mxCell>
        <mxCell id="MK7afYL4_efToqdgsO7v-164" value="Modification d&#39;une opération" style="ellipse;whiteSpace=wrap;html=1;" vertex="1" parent="MK7afYL4_efToqdgsO7v-67">
          <mxGeometry x="40" y="1110" width="110" height="70" as="geometry" />
        </mxCell>
        <mxCell id="MK7afYL4_efToqdgsO7v-165" style="rounded=0;orthogonalLoop=1;jettySize=auto;html=1;dashed=1;dashPattern=8 8;exitX=0;exitY=0.5;exitDx=0;exitDy=0;entryX=1;entryY=0.5;entryDx=0;entryDy=0;" edge="1" parent="MK7afYL4_efToqdgsO7v-67" source="MK7afYL4_efToqdgsO7v-163" target="MK7afYL4_efToqdgsO7v-76">
          <mxGeometry relative="1" as="geometry">
            <mxPoint x="226" y="835" as="sourcePoint" />
            <mxPoint x="151" y="914" as="targetPoint" />
          </mxGeometry>
        </mxCell>
        <mxCell id="MK7afYL4_efToqdgsO7v-166" value="Extends" style="edgeLabel;html=1;align=center;verticalAlign=middle;resizable=0;points=[];" vertex="1" connectable="0" parent="MK7afYL4_efToqdgsO7v-165">
          <mxGeometry x="0.0337" y="1" relative="1" as="geometry">
            <mxPoint as="offset" />
          </mxGeometry>
        </mxCell>
        <mxCell id="MK7afYL4_efToqdgsO7v-167" style="rounded=0;orthogonalLoop=1;jettySize=auto;html=1;dashed=1;dashPattern=8 8;exitX=0.5;exitY=0;exitDx=0;exitDy=0;entryX=0.5;entryY=1;entryDx=0;entryDy=0;" edge="1" parent="MK7afYL4_efToqdgsO7v-67" source="MK7afYL4_efToqdgsO7v-164" target="MK7afYL4_efToqdgsO7v-76">
          <mxGeometry relative="1" as="geometry">
            <mxPoint x="236" y="845" as="sourcePoint" />
            <mxPoint x="161" y="924" as="targetPoint" />
          </mxGeometry>
        </mxCell>
        <mxCell id="MK7afYL4_efToqdgsO7v-168" value="Extends" style="edgeLabel;html=1;align=center;verticalAlign=middle;resizable=0;points=[];" vertex="1" connectable="0" parent="MK7afYL4_efToqdgsO7v-167">
          <mxGeometry x="0.0337" y="1" relative="1" as="geometry">
            <mxPoint as="offset" />
          </mxGeometry>
        </mxCell>
        <mxCell id="MK7afYL4_efToqdgsO7v-170" style="rounded=0;orthogonalLoop=1;jettySize=auto;html=1;entryX=0.168;entryY=0.979;entryDx=0;entryDy=0;dashed=1;dashPattern=8 8;entryPerimeter=0;" edge="1" parent="MK7afYL4_efToqdgsO7v-67" source="MK7afYL4_efToqdgsO7v-169" target="MK7afYL4_efToqdgsO7v-164">
          <mxGeometry relative="1" as="geometry" />
        </mxCell>
        <mxCell id="MK7afYL4_efToqdgsO7v-171" value="extends" style="edgeLabel;html=1;align=center;verticalAlign=middle;resizable=0;points=[];" vertex="1" connectable="0" parent="MK7afYL4_efToqdgsO7v-170">
          <mxGeometry x="-0.0441" y="2" relative="1" as="geometry">
            <mxPoint as="offset" />
          </mxGeometry>
        </mxCell>
        <mxCell id="MK7afYL4_efToqdgsO7v-169" value="Lier un matériel" style="ellipse;whiteSpace=wrap;html=1;" vertex="1" parent="MK7afYL4_efToqdgsO7v-67">
          <mxGeometry x="60" y="1340" width="110" height="70" as="geometry" />
        </mxCell>
        <mxCell id="MK7afYL4_efToqdgsO7v-174" value="Gestion arrêt" style="ellipse;whiteSpace=wrap;html=1;" vertex="1" parent="MK7afYL4_efToqdgsO7v-67">
          <mxGeometry x="280" y="1210" width="110" height="70" as="geometry" />
        </mxCell>
        <mxCell id="MK7afYL4_efToqdgsO7v-175" style="rounded=0;orthogonalLoop=1;jettySize=auto;html=1;entryX=1;entryY=0.5;entryDx=0;entryDy=0;dashed=1;dashPattern=8 8;exitX=-0.02;exitY=0.411;exitDx=0;exitDy=0;exitPerimeter=0;" edge="1" parent="MK7afYL4_efToqdgsO7v-67" source="MK7afYL4_efToqdgsO7v-174" target="MK7afYL4_efToqdgsO7v-164">
          <mxGeometry relative="1" as="geometry">
            <mxPoint x="587" y="994" as="sourcePoint" />
            <mxPoint x="350" y="1035" as="targetPoint" />
          </mxGeometry>
        </mxCell>
        <mxCell id="MK7afYL4_efToqdgsO7v-176" value="extends" style="edgeLabel;html=1;align=center;verticalAlign=middle;resizable=0;points=[];" vertex="1" connectable="0" parent="MK7afYL4_efToqdgsO7v-175">
          <mxGeometry x="-0.0441" y="2" relative="1" as="geometry">
            <mxPoint as="offset" />
          </mxGeometry>
        </mxCell>
        <mxCell id="MK7afYL4_efToqdgsO7v-177" value="Lier un numero dossier" style="ellipse;whiteSpace=wrap;html=1;" vertex="1" parent="MK7afYL4_efToqdgsO7v-67">
          <mxGeometry x="590" y="970" width="110" height="70" as="geometry" />
        </mxCell>
        <mxCell id="MK7afYL4_efToqdgsO7v-180" style="rounded=0;orthogonalLoop=1;jettySize=auto;html=1;dashed=1;dashPattern=8 8;endArrow=classic;endFill=1;startArrow=none;startFill=0;exitX=1;exitY=1;exitDx=0;exitDy=0;" edge="1" parent="MK7afYL4_efToqdgsO7v-67" target="MK7afYL4_efToqdgsO7v-182" source="MK7afYL4_efToqdgsO7v-163">
          <mxGeometry relative="1" as="geometry">
            <mxPoint x="340" y="1132" as="sourcePoint" />
          </mxGeometry>
        </mxCell>
        <mxCell id="MK7afYL4_efToqdgsO7v-181" value="Include" style="edgeLabel;html=1;align=center;verticalAlign=middle;resizable=0;points=[];" vertex="1" connectable="0" parent="MK7afYL4_efToqdgsO7v-180">
          <mxGeometry x="-0.0249" relative="1" as="geometry">
            <mxPoint x="-1" as="offset" />
          </mxGeometry>
        </mxCell>
        <mxCell id="MK7afYL4_efToqdgsO7v-182" value="Lier un quai" style="ellipse;whiteSpace=wrap;html=1;" vertex="1" parent="MK7afYL4_efToqdgsO7v-67">
          <mxGeometry x="690" y="1020" width="110" height="70" as="geometry" />
        </mxCell>
        <mxCell id="MK7afYL4_efToqdgsO7v-183" style="rounded=0;orthogonalLoop=1;jettySize=auto;html=1;dashed=1;dashPattern=8 8;endArrow=classic;endFill=1;startArrow=none;startFill=0;exitX=1;exitY=1;exitDx=0;exitDy=0;" edge="1" parent="MK7afYL4_efToqdgsO7v-67" target="MK7afYL4_efToqdgsO7v-185" source="MK7afYL4_efToqdgsO7v-163">
          <mxGeometry relative="1" as="geometry">
            <mxPoint x="310" y="1182" as="sourcePoint" />
          </mxGeometry>
        </mxCell>
        <mxCell id="MK7afYL4_efToqdgsO7v-184" value="Include" style="edgeLabel;html=1;align=center;verticalAlign=middle;resizable=0;points=[];" vertex="1" connectable="0" parent="MK7afYL4_efToqdgsO7v-183">
          <mxGeometry x="-0.0249" relative="1" as="geometry">
            <mxPoint x="-1" as="offset" />
          </mxGeometry>
        </mxCell>
        <mxCell id="MK7afYL4_efToqdgsO7v-185" value="Lier un client" style="ellipse;whiteSpace=wrap;html=1;" vertex="1" parent="MK7afYL4_efToqdgsO7v-67">
          <mxGeometry x="590" y="1070" width="110" height="70" as="geometry" />
        </mxCell>
        <mxCell id="MK7afYL4_efToqdgsO7v-186" style="rounded=0;orthogonalLoop=1;jettySize=auto;html=1;dashed=1;dashPattern=8 8;endArrow=classic;endFill=1;startArrow=none;startFill=0;exitX=1;exitY=1;exitDx=0;exitDy=0;" edge="1" parent="MK7afYL4_efToqdgsO7v-67" target="MK7afYL4_efToqdgsO7v-188" source="MK7afYL4_efToqdgsO7v-163">
          <mxGeometry relative="1" as="geometry">
            <mxPoint x="215" y="1142" as="sourcePoint" />
          </mxGeometry>
        </mxCell>
        <mxCell id="MK7afYL4_efToqdgsO7v-187" value="Include" style="edgeLabel;html=1;align=center;verticalAlign=middle;resizable=0;points=[];" vertex="1" connectable="0" parent="MK7afYL4_efToqdgsO7v-186">
          <mxGeometry x="-0.0249" relative="1" as="geometry">
            <mxPoint x="-1" as="offset" />
          </mxGeometry>
        </mxCell>
        <mxCell id="MK7afYL4_efToqdgsO7v-188" value="Lier un produit" style="ellipse;whiteSpace=wrap;html=1;" vertex="1" parent="MK7afYL4_efToqdgsO7v-67">
          <mxGeometry x="465" y="1090" width="110" height="70" as="geometry" />
        </mxCell>
        <mxCell id="MK7afYL4_efToqdgsO7v-194" style="rounded=0;orthogonalLoop=1;jettySize=auto;html=1;dashed=1;dashPattern=8 8;" edge="1" parent="MK7afYL4_efToqdgsO7v-67" source="MK7afYL4_efToqdgsO7v-189" target="MK7afYL4_efToqdgsO7v-174">
          <mxGeometry relative="1" as="geometry" />
        </mxCell>
        <mxCell id="MK7afYL4_efToqdgsO7v-197" value="extends" style="edgeLabel;html=1;align=center;verticalAlign=middle;resizable=0;points=[];" vertex="1" connectable="0" parent="MK7afYL4_efToqdgsO7v-194">
          <mxGeometry x="0.0955" y="1" relative="1" as="geometry">
            <mxPoint as="offset" />
          </mxGeometry>
        </mxCell>
        <mxCell id="MK7afYL4_efToqdgsO7v-189" value="Ajout d&#39;un arrêt" style="ellipse;whiteSpace=wrap;html=1;" vertex="1" parent="MK7afYL4_efToqdgsO7v-67">
          <mxGeometry x="500" y="1210" width="90" height="70" as="geometry" />
        </mxCell>
        <mxCell id="MK7afYL4_efToqdgsO7v-192" style="rounded=0;orthogonalLoop=1;jettySize=auto;html=1;dashed=1;dashPattern=8 8;" edge="1" parent="MK7afYL4_efToqdgsO7v-67" source="MK7afYL4_efToqdgsO7v-190" target="MK7afYL4_efToqdgsO7v-174">
          <mxGeometry relative="1" as="geometry" />
        </mxCell>
        <mxCell id="MK7afYL4_efToqdgsO7v-198" value="extends" style="edgeLabel;html=1;align=center;verticalAlign=middle;resizable=0;points=[];" vertex="1" connectable="0" parent="MK7afYL4_efToqdgsO7v-192">
          <mxGeometry x="-0.1757" y="5" relative="1" as="geometry">
            <mxPoint as="offset" />
          </mxGeometry>
        </mxCell>
        <mxCell id="MK7afYL4_efToqdgsO7v-190" value="Modifier information arrêt" style="ellipse;whiteSpace=wrap;html=1;" vertex="1" parent="MK7afYL4_efToqdgsO7v-67">
          <mxGeometry x="440" y="1300" width="90" height="70" as="geometry" />
        </mxCell>
        <mxCell id="MK7afYL4_efToqdgsO7v-193" style="rounded=0;orthogonalLoop=1;jettySize=auto;html=1;entryX=0.5;entryY=1;entryDx=0;entryDy=0;dashed=1;dashPattern=8 8;" edge="1" parent="MK7afYL4_efToqdgsO7v-67" source="MK7afYL4_efToqdgsO7v-191" target="MK7afYL4_efToqdgsO7v-174">
          <mxGeometry relative="1" as="geometry" />
        </mxCell>
        <mxCell id="MK7afYL4_efToqdgsO7v-199" value="extends" style="edgeLabel;html=1;align=center;verticalAlign=middle;resizable=0;points=[];" vertex="1" connectable="0" parent="MK7afYL4_efToqdgsO7v-193">
          <mxGeometry x="-0.0102" y="3" relative="1" as="geometry">
            <mxPoint as="offset" />
          </mxGeometry>
        </mxCell>
        <mxCell id="MK7afYL4_efToqdgsO7v-191" value="lister les arrêts" style="ellipse;whiteSpace=wrap;html=1;" vertex="1" parent="MK7afYL4_efToqdgsO7v-67">
          <mxGeometry x="310" y="1370" width="90" height="70" as="geometry" />
        </mxCell>
        <mxCell id="MK7afYL4_efToqdgsO7v-196" style="rounded=0;orthogonalLoop=1;jettySize=auto;html=1;entryX=1;entryY=1;entryDx=0;entryDy=0;dashed=1;dashPattern=8 8;" edge="1" parent="MK7afYL4_efToqdgsO7v-67" source="MK7afYL4_efToqdgsO7v-195" target="MK7afYL4_efToqdgsO7v-191">
          <mxGeometry relative="1" as="geometry" />
        </mxCell>
        <mxCell id="MK7afYL4_efToqdgsO7v-200" value="extends" style="edgeLabel;html=1;align=center;verticalAlign=middle;resizable=0;points=[];" vertex="1" connectable="0" parent="MK7afYL4_efToqdgsO7v-196">
          <mxGeometry x="0.0176" y="2" relative="1" as="geometry">
            <mxPoint y="-1" as="offset" />
          </mxGeometry>
        </mxCell>
        <mxCell id="MK7afYL4_efToqdgsO7v-195" value="voir information d&#39;un arrêt" style="ellipse;whiteSpace=wrap;html=1;" vertex="1" parent="MK7afYL4_efToqdgsO7v-67">
          <mxGeometry x="490" y="1460" width="90" height="70" as="geometry" />
        </mxCell>
        <mxCell id="MK7afYL4_efToqdgsO7v-93" value="Manager" style="shape=umlActor;verticalLabelPosition=bottom;verticalAlign=top;html=1;" vertex="1" parent="1">
          <mxGeometry x="2230" y="580" width="30" height="60" as="geometry" />
        </mxCell>
        <mxCell id="MK7afYL4_efToqdgsO7v-94" style="rounded=0;orthogonalLoop=1;jettySize=auto;html=1;entryX=0.5;entryY=0;entryDx=0;entryDy=0;entryPerimeter=0;endArrow=none;endFill=0;" edge="1" parent="1" source="MK7afYL4_efToqdgsO7v-68" target="MK7afYL4_efToqdgsO7v-93">
          <mxGeometry relative="1" as="geometry" />
        </mxCell>
        <mxCell id="MK7afYL4_efToqdgsO7v-96" style="rounded=0;orthogonalLoop=1;jettySize=auto;html=1;endArrow=none;endFill=0;" edge="1" parent="1" source="MK7afYL4_efToqdgsO7v-76" target="MK7afYL4_efToqdgsO7v-93">
          <mxGeometry relative="1" as="geometry" />
        </mxCell>
        <mxCell id="MK7afYL4_efToqdgsO7v-130" style="rounded=0;orthogonalLoop=1;jettySize=auto;html=1;dashed=1;dashPattern=8 8;exitX=0;exitY=0.5;exitDx=0;exitDy=0;" edge="1" parent="1" source="MK7afYL4_efToqdgsO7v-129">
          <mxGeometry relative="1" as="geometry">
            <mxPoint x="2693" y="155" as="sourcePoint" />
            <mxPoint x="2570" y="190" as="targetPoint" />
          </mxGeometry>
        </mxCell>
        <mxCell id="MK7afYL4_efToqdgsO7v-131" value="Extends" style="edgeLabel;html=1;align=center;verticalAlign=middle;resizable=0;points=[];" vertex="1" connectable="0" parent="MK7afYL4_efToqdgsO7v-130">
          <mxGeometry x="0.0337" y="1" relative="1" as="geometry">
            <mxPoint as="offset" />
          </mxGeometry>
        </mxCell>
        <mxCell id="MK7afYL4_efToqdgsO7v-145" style="rounded=0;orthogonalLoop=1;jettySize=auto;html=1;entryX=1;entryY=0.3333333333333333;entryDx=0;entryDy=0;entryPerimeter=0;endArrow=none;endFill=0;" edge="1" parent="1" source="MK7afYL4_efToqdgsO7v-135" target="MK7afYL4_efToqdgsO7v-93">
          <mxGeometry relative="1" as="geometry" />
        </mxCell>
        <mxCell id="MK7afYL4_efToqdgsO7v-160" style="rounded=0;orthogonalLoop=1;jettySize=auto;html=1;endArrow=none;endFill=0;" edge="1" parent="1" source="MK7afYL4_efToqdgsO7v-150" target="MK7afYL4_efToqdgsO7v-93">
          <mxGeometry relative="1" as="geometry" />
        </mxCell>
        <mxCell id="MK7afYL4_efToqdgsO7v-161" style="edgeStyle=orthogonalEdgeStyle;rounded=0;orthogonalLoop=1;jettySize=auto;html=1;exitX=0.5;exitY=0.5;exitDx=0;exitDy=0;exitPerimeter=0;entryX=1;entryY=0.3333333333333333;entryDx=0;entryDy=0;entryPerimeter=0;" edge="1" parent="1" source="MK7afYL4_efToqdgsO7v-93" target="MK7afYL4_efToqdgsO7v-93">
          <mxGeometry relative="1" as="geometry" />
        </mxCell>
        <mxCell id="MK7afYL4_efToqdgsO7v-201" value="Use case Administrateur" style="shape=umlFrame;whiteSpace=wrap;html=1;pointerEvents=0;recursiveResize=0;container=1;collapsible=0;width=160;" vertex="1" parent="1">
          <mxGeometry x="4020" y="350" width="1030" height="1590" as="geometry" />
        </mxCell>
        <mxCell id="MK7afYL4_efToqdgsO7v-202" value="Lister les navires" style="ellipse;whiteSpace=wrap;html=1;" vertex="1" parent="MK7afYL4_efToqdgsO7v-201">
          <mxGeometry x="90" y="70" width="80" height="50" as="geometry" />
        </mxCell>
        <mxCell id="MK7afYL4_efToqdgsO7v-203" style="rounded=0;orthogonalLoop=1;jettySize=auto;html=1;dashed=1;dashPattern=8 8;" edge="1" parent="MK7afYL4_efToqdgsO7v-201" source="MK7afYL4_efToqdgsO7v-205" target="MK7afYL4_efToqdgsO7v-202">
          <mxGeometry relative="1" as="geometry" />
        </mxCell>
        <mxCell id="MK7afYL4_efToqdgsO7v-204" value="Extends" style="edgeLabel;html=1;align=center;verticalAlign=middle;resizable=0;points=[];" vertex="1" connectable="0" parent="MK7afYL4_efToqdgsO7v-203">
          <mxGeometry x="0.0337" y="1" relative="1" as="geometry">
            <mxPoint as="offset" />
          </mxGeometry>
        </mxCell>
        <mxCell id="MK7afYL4_efToqdgsO7v-205" value="Voir informations navire" style="ellipse;whiteSpace=wrap;html=1;" vertex="1" parent="MK7afYL4_efToqdgsO7v-201">
          <mxGeometry x="280" y="20" width="80" height="50" as="geometry" />
        </mxCell>
        <mxCell id="MK7afYL4_efToqdgsO7v-206" value="Voir informations d&#39;un arrêt" style="ellipse;whiteSpace=wrap;html=1;" vertex="1" parent="MK7afYL4_efToqdgsO7v-201">
          <mxGeometry x="660" y="680" width="110" height="70" as="geometry" />
        </mxCell>
        <mxCell id="MK7afYL4_efToqdgsO7v-207" value="Modifier informations navire" style="ellipse;whiteSpace=wrap;html=1;" vertex="1" parent="MK7afYL4_efToqdgsO7v-201">
          <mxGeometry x="300" y="90" width="80" height="50" as="geometry" />
        </mxCell>
        <mxCell id="MK7afYL4_efToqdgsO7v-208" value="Ajouter informations navire" style="ellipse;whiteSpace=wrap;html=1;" vertex="1" parent="MK7afYL4_efToqdgsO7v-201">
          <mxGeometry x="230" y="140" width="80" height="50" as="geometry" />
        </mxCell>
        <mxCell id="MK7afYL4_efToqdgsO7v-209" style="rounded=0;orthogonalLoop=1;jettySize=auto;html=1;dashed=1;dashPattern=8 8;exitX=0;exitY=0.5;exitDx=0;exitDy=0;entryX=1;entryY=1;entryDx=0;entryDy=0;" edge="1" parent="MK7afYL4_efToqdgsO7v-201" source="MK7afYL4_efToqdgsO7v-208" target="MK7afYL4_efToqdgsO7v-202">
          <mxGeometry relative="1" as="geometry">
            <mxPoint x="303" y="75" as="sourcePoint" />
            <mxPoint x="187" y="105" as="targetPoint" />
          </mxGeometry>
        </mxCell>
        <mxCell id="MK7afYL4_efToqdgsO7v-210" value="Extends" style="edgeLabel;html=1;align=center;verticalAlign=middle;resizable=0;points=[];" vertex="1" connectable="0" parent="MK7afYL4_efToqdgsO7v-209">
          <mxGeometry x="0.0337" y="1" relative="1" as="geometry">
            <mxPoint as="offset" />
          </mxGeometry>
        </mxCell>
        <mxCell id="MK7afYL4_efToqdgsO7v-211" value="Lister les numéro de dossier" style="ellipse;whiteSpace=wrap;html=1;" vertex="1" parent="MK7afYL4_efToqdgsO7v-201">
          <mxGeometry x="320" y="300" width="80" height="50" as="geometry" />
        </mxCell>
        <mxCell id="MK7afYL4_efToqdgsO7v-212" style="rounded=0;orthogonalLoop=1;jettySize=auto;html=1;dashed=1;dashPattern=8 8;" edge="1" parent="MK7afYL4_efToqdgsO7v-201" source="MK7afYL4_efToqdgsO7v-214" target="MK7afYL4_efToqdgsO7v-211">
          <mxGeometry relative="1" as="geometry" />
        </mxCell>
        <mxCell id="MK7afYL4_efToqdgsO7v-213" value="Extends" style="edgeLabel;html=1;align=center;verticalAlign=middle;resizable=0;points=[];" vertex="1" connectable="0" parent="MK7afYL4_efToqdgsO7v-212">
          <mxGeometry x="0.0337" y="1" relative="1" as="geometry">
            <mxPoint as="offset" />
          </mxGeometry>
        </mxCell>
        <mxCell id="MK7afYL4_efToqdgsO7v-214" value="Voir informations nnuméro" style="ellipse;whiteSpace=wrap;html=1;" vertex="1" parent="MK7afYL4_efToqdgsO7v-201">
          <mxGeometry x="480" y="230" width="80" height="50" as="geometry" />
        </mxCell>
        <mxCell id="MK7afYL4_efToqdgsO7v-215" value="Modifier informations numéro" style="ellipse;whiteSpace=wrap;html=1;" vertex="1" parent="MK7afYL4_efToqdgsO7v-201">
          <mxGeometry x="520" y="300" width="80" height="50" as="geometry" />
        </mxCell>
        <mxCell id="MK7afYL4_efToqdgsO7v-216" value="Ajouter informations numéro" style="ellipse;whiteSpace=wrap;html=1;" vertex="1" parent="MK7afYL4_efToqdgsO7v-201">
          <mxGeometry x="500" y="390" width="80" height="50" as="geometry" />
        </mxCell>
        <mxCell id="MK7afYL4_efToqdgsO7v-217" style="rounded=0;orthogonalLoop=1;jettySize=auto;html=1;dashed=1;dashPattern=8 8;exitX=0;exitY=0.5;exitDx=0;exitDy=0;entryX=1;entryY=1;entryDx=0;entryDy=0;" edge="1" parent="MK7afYL4_efToqdgsO7v-201" source="MK7afYL4_efToqdgsO7v-216" target="MK7afYL4_efToqdgsO7v-211">
          <mxGeometry relative="1" as="geometry">
            <mxPoint x="553" y="365" as="sourcePoint" />
            <mxPoint x="437" y="395" as="targetPoint" />
          </mxGeometry>
        </mxCell>
        <mxCell id="MK7afYL4_efToqdgsO7v-218" value="Extends" style="edgeLabel;html=1;align=center;verticalAlign=middle;resizable=0;points=[];" vertex="1" connectable="0" parent="MK7afYL4_efToqdgsO7v-217">
          <mxGeometry x="0.0337" y="1" relative="1" as="geometry">
            <mxPoint as="offset" />
          </mxGeometry>
        </mxCell>
        <mxCell id="MK7afYL4_efToqdgsO7v-219" style="rounded=0;orthogonalLoop=1;jettySize=auto;html=1;dashed=1;dashPattern=8 8;exitX=0;exitY=0.5;exitDx=0;exitDy=0;entryX=1;entryY=1;entryDx=0;entryDy=0;" edge="1" parent="MK7afYL4_efToqdgsO7v-201" source="MK7afYL4_efToqdgsO7v-215" target="MK7afYL4_efToqdgsO7v-211">
          <mxGeometry relative="1" as="geometry">
            <mxPoint x="543" y="355" as="sourcePoint" />
            <mxPoint x="420" y="390" as="targetPoint" />
          </mxGeometry>
        </mxCell>
        <mxCell id="MK7afYL4_efToqdgsO7v-220" value="Extends" style="edgeLabel;html=1;align=center;verticalAlign=middle;resizable=0;points=[];" vertex="1" connectable="0" parent="MK7afYL4_efToqdgsO7v-219">
          <mxGeometry x="0.0337" y="1" relative="1" as="geometry">
            <mxPoint as="offset" />
          </mxGeometry>
        </mxCell>
        <mxCell id="MK7afYL4_efToqdgsO7v-221" value="Lier un navire" style="ellipse;whiteSpace=wrap;html=1;" vertex="1" parent="MK7afYL4_efToqdgsO7v-201">
          <mxGeometry x="730" y="310" width="80" height="50" as="geometry" />
        </mxCell>
        <mxCell id="MK7afYL4_efToqdgsO7v-222" style="rounded=0;orthogonalLoop=1;jettySize=auto;html=1;dashed=1;dashPattern=8 8;exitX=0.028;exitY=0.695;exitDx=0;exitDy=0;entryX=1;entryY=0.5;entryDx=0;entryDy=0;startArrow=classic;startFill=1;endArrow=none;endFill=0;exitPerimeter=0;" edge="1" parent="MK7afYL4_efToqdgsO7v-201" source="MK7afYL4_efToqdgsO7v-221" target="MK7afYL4_efToqdgsO7v-216">
          <mxGeometry relative="1" as="geometry">
            <mxPoint x="343" y="372" as="sourcePoint" />
            <mxPoint x="360" y="400" as="targetPoint" />
          </mxGeometry>
        </mxCell>
        <mxCell id="MK7afYL4_efToqdgsO7v-223" value="Include" style="edgeLabel;html=1;align=center;verticalAlign=middle;resizable=0;points=[];" vertex="1" connectable="0" parent="MK7afYL4_efToqdgsO7v-222">
          <mxGeometry x="0.0337" y="1" relative="1" as="geometry">
            <mxPoint as="offset" />
          </mxGeometry>
        </mxCell>
        <mxCell id="MK7afYL4_efToqdgsO7v-224" value="Lister les équipement" style="ellipse;whiteSpace=wrap;html=1;" vertex="1" parent="MK7afYL4_efToqdgsO7v-201">
          <mxGeometry x="90" y="510" width="80" height="50" as="geometry" />
        </mxCell>
        <mxCell id="MK7afYL4_efToqdgsO7v-225" style="rounded=0;orthogonalLoop=1;jettySize=auto;html=1;dashed=1;dashPattern=8 8;" edge="1" parent="MK7afYL4_efToqdgsO7v-201" source="MK7afYL4_efToqdgsO7v-227" target="MK7afYL4_efToqdgsO7v-224">
          <mxGeometry relative="1" as="geometry" />
        </mxCell>
        <mxCell id="MK7afYL4_efToqdgsO7v-226" value="Extends" style="edgeLabel;html=1;align=center;verticalAlign=middle;resizable=0;points=[];" vertex="1" connectable="0" parent="MK7afYL4_efToqdgsO7v-225">
          <mxGeometry x="0.0337" y="1" relative="1" as="geometry">
            <mxPoint as="offset" />
          </mxGeometry>
        </mxCell>
        <mxCell id="MK7afYL4_efToqdgsO7v-227" value="Voir informations équipement" style="ellipse;whiteSpace=wrap;html=1;" vertex="1" parent="MK7afYL4_efToqdgsO7v-201">
          <mxGeometry x="270" y="440" width="80" height="50" as="geometry" />
        </mxCell>
        <mxCell id="MK7afYL4_efToqdgsO7v-228" value="Modifier informations équipement" style="ellipse;whiteSpace=wrap;html=1;" vertex="1" parent="MK7afYL4_efToqdgsO7v-201">
          <mxGeometry x="300" y="530" width="90" height="60" as="geometry" />
        </mxCell>
        <mxCell id="MK7afYL4_efToqdgsO7v-229" value="Ajouter informations équipement" style="ellipse;whiteSpace=wrap;html=1;" vertex="1" parent="MK7afYL4_efToqdgsO7v-201">
          <mxGeometry x="230" y="600" width="90" height="80" as="geometry" />
        </mxCell>
        <mxCell id="MK7afYL4_efToqdgsO7v-230" style="rounded=0;orthogonalLoop=1;jettySize=auto;html=1;dashed=1;dashPattern=8 8;exitX=0;exitY=0.5;exitDx=0;exitDy=0;entryX=1;entryY=1;entryDx=0;entryDy=0;" edge="1" parent="MK7afYL4_efToqdgsO7v-201" source="MK7afYL4_efToqdgsO7v-229" target="MK7afYL4_efToqdgsO7v-224">
          <mxGeometry relative="1" as="geometry">
            <mxPoint x="303" y="515" as="sourcePoint" />
            <mxPoint x="187" y="545" as="targetPoint" />
          </mxGeometry>
        </mxCell>
        <mxCell id="MK7afYL4_efToqdgsO7v-231" value="Extends" style="edgeLabel;html=1;align=center;verticalAlign=middle;resizable=0;points=[];" vertex="1" connectable="0" parent="MK7afYL4_efToqdgsO7v-230">
          <mxGeometry x="0.0337" y="1" relative="1" as="geometry">
            <mxPoint as="offset" />
          </mxGeometry>
        </mxCell>
        <mxCell id="MK7afYL4_efToqdgsO7v-232" style="rounded=0;orthogonalLoop=1;jettySize=auto;html=1;dashed=1;dashPattern=8 8;exitX=0;exitY=0.5;exitDx=0;exitDy=0;" edge="1" parent="MK7afYL4_efToqdgsO7v-201" source="MK7afYL4_efToqdgsO7v-228">
          <mxGeometry relative="1" as="geometry">
            <mxPoint x="293" y="505" as="sourcePoint" />
            <mxPoint x="170" y="540" as="targetPoint" />
          </mxGeometry>
        </mxCell>
        <mxCell id="MK7afYL4_efToqdgsO7v-233" value="Extends" style="edgeLabel;html=1;align=center;verticalAlign=middle;resizable=0;points=[];" vertex="1" connectable="0" parent="MK7afYL4_efToqdgsO7v-232">
          <mxGeometry x="0.0337" y="1" relative="1" as="geometry">
            <mxPoint as="offset" />
          </mxGeometry>
        </mxCell>
        <mxCell id="MK7afYL4_efToqdgsO7v-234" value="Gestion les opérations" style="ellipse;whiteSpace=wrap;html=1;" vertex="1" parent="MK7afYL4_efToqdgsO7v-201">
          <mxGeometry x="80" y="900" width="80" height="50" as="geometry" />
        </mxCell>
        <mxCell id="MK7afYL4_efToqdgsO7v-235" value="Voir informations d&#39;une opération" style="ellipse;whiteSpace=wrap;html=1;" vertex="1" parent="MK7afYL4_efToqdgsO7v-201">
          <mxGeometry x="190" y="760" width="110" height="70" as="geometry" />
        </mxCell>
        <mxCell id="MK7afYL4_efToqdgsO7v-236" style="rounded=0;orthogonalLoop=1;jettySize=auto;html=1;dashed=1;dashPattern=8 8;" edge="1" parent="MK7afYL4_efToqdgsO7v-201" source="MK7afYL4_efToqdgsO7v-235" target="MK7afYL4_efToqdgsO7v-234">
          <mxGeometry relative="1" as="geometry" />
        </mxCell>
        <mxCell id="MK7afYL4_efToqdgsO7v-237" value="Extends" style="edgeLabel;html=1;align=center;verticalAlign=middle;resizable=0;points=[];" vertex="1" connectable="0" parent="MK7afYL4_efToqdgsO7v-236">
          <mxGeometry x="0.0337" y="1" relative="1" as="geometry">
            <mxPoint as="offset" />
          </mxGeometry>
        </mxCell>
        <mxCell id="MK7afYL4_efToqdgsO7v-238" value="Lister les arrêts" style="ellipse;whiteSpace=wrap;html=1;" vertex="1" parent="MK7afYL4_efToqdgsO7v-201">
          <mxGeometry x="450" y="730" width="110" height="70" as="geometry" />
        </mxCell>
        <mxCell id="MK7afYL4_efToqdgsO7v-239" style="rounded=0;orthogonalLoop=1;jettySize=auto;html=1;dashed=1;dashPattern=8 8;" edge="1" parent="MK7afYL4_efToqdgsO7v-201" source="MK7afYL4_efToqdgsO7v-238" target="MK7afYL4_efToqdgsO7v-235">
          <mxGeometry relative="1" as="geometry" />
        </mxCell>
        <mxCell id="MK7afYL4_efToqdgsO7v-240" value="Extends" style="edgeLabel;html=1;align=center;verticalAlign=middle;resizable=0;points=[];" vertex="1" connectable="0" parent="MK7afYL4_efToqdgsO7v-239">
          <mxGeometry x="-0.0638" y="-2" relative="1" as="geometry">
            <mxPoint x="1" as="offset" />
          </mxGeometry>
        </mxCell>
        <mxCell id="MK7afYL4_efToqdgsO7v-241" style="rounded=0;orthogonalLoop=1;jettySize=auto;html=1;entryX=1;entryY=0.5;entryDx=0;entryDy=0;dashed=1;exitX=0;exitY=1;exitDx=0;exitDy=0;" edge="1" parent="MK7afYL4_efToqdgsO7v-201" source="MK7afYL4_efToqdgsO7v-206" target="MK7afYL4_efToqdgsO7v-238">
          <mxGeometry relative="1" as="geometry">
            <mxPoint x="667.7499776088753" y="903.351668036154" as="sourcePoint" />
          </mxGeometry>
        </mxCell>
        <mxCell id="MK7afYL4_efToqdgsO7v-242" value="Extends" style="edgeLabel;html=1;align=center;verticalAlign=middle;resizable=0;points=[];" vertex="1" connectable="0" parent="MK7afYL4_efToqdgsO7v-241">
          <mxGeometry x="-0.0838" y="2" relative="1" as="geometry">
            <mxPoint as="offset" />
          </mxGeometry>
        </mxCell>
        <mxCell id="MK7afYL4_efToqdgsO7v-243" value="Lister les materiels d&#39;une opération" style="ellipse;whiteSpace=wrap;html=1;" vertex="1" parent="MK7afYL4_efToqdgsO7v-201">
          <mxGeometry x="500" y="850" width="110" height="70" as="geometry" />
        </mxCell>
        <mxCell id="MK7afYL4_efToqdgsO7v-244" style="rounded=0;orthogonalLoop=1;jettySize=auto;html=1;dashed=1;dashPattern=8 8;" edge="1" parent="MK7afYL4_efToqdgsO7v-201" source="MK7afYL4_efToqdgsO7v-243" target="MK7afYL4_efToqdgsO7v-235">
          <mxGeometry relative="1" as="geometry" />
        </mxCell>
        <mxCell id="MK7afYL4_efToqdgsO7v-245" value="Extends" style="edgeLabel;html=1;align=center;verticalAlign=middle;resizable=0;points=[];" vertex="1" connectable="0" parent="MK7afYL4_efToqdgsO7v-244">
          <mxGeometry x="0.2234" y="6" relative="1" as="geometry">
            <mxPoint y="-1" as="offset" />
          </mxGeometry>
        </mxCell>
        <mxCell id="MK7afYL4_efToqdgsO7v-246" style="rounded=0;orthogonalLoop=1;jettySize=auto;html=1;dashed=1;dashPattern=8 8;endArrow=classic;endFill=1;startArrow=none;startFill=0;" edge="1" parent="MK7afYL4_efToqdgsO7v-201" source="MK7afYL4_efToqdgsO7v-248" target="MK7afYL4_efToqdgsO7v-260">
          <mxGeometry relative="1" as="geometry" />
        </mxCell>
        <mxCell id="MK7afYL4_efToqdgsO7v-247" value="Include" style="edgeLabel;html=1;align=center;verticalAlign=middle;resizable=0;points=[];" vertex="1" connectable="0" parent="MK7afYL4_efToqdgsO7v-246">
          <mxGeometry x="-0.0249" relative="1" as="geometry">
            <mxPoint x="-1" as="offset" />
          </mxGeometry>
        </mxCell>
        <mxCell id="MK7afYL4_efToqdgsO7v-248" value="Ajout d&#39;une opération" style="ellipse;whiteSpace=wrap;html=1;" vertex="1" parent="MK7afYL4_efToqdgsO7v-201">
          <mxGeometry x="230" y="990" width="110" height="70" as="geometry" />
        </mxCell>
        <mxCell id="MK7afYL4_efToqdgsO7v-249" value="Modification d&#39;une opération" style="ellipse;whiteSpace=wrap;html=1;" vertex="1" parent="MK7afYL4_efToqdgsO7v-201">
          <mxGeometry x="40" y="1110" width="110" height="70" as="geometry" />
        </mxCell>
        <mxCell id="MK7afYL4_efToqdgsO7v-250" style="rounded=0;orthogonalLoop=1;jettySize=auto;html=1;dashed=1;dashPattern=8 8;exitX=0;exitY=0.5;exitDx=0;exitDy=0;entryX=1;entryY=0.5;entryDx=0;entryDy=0;" edge="1" parent="MK7afYL4_efToqdgsO7v-201" source="MK7afYL4_efToqdgsO7v-248" target="MK7afYL4_efToqdgsO7v-234">
          <mxGeometry relative="1" as="geometry">
            <mxPoint x="226" y="835" as="sourcePoint" />
            <mxPoint x="151" y="914" as="targetPoint" />
          </mxGeometry>
        </mxCell>
        <mxCell id="MK7afYL4_efToqdgsO7v-251" value="Extends" style="edgeLabel;html=1;align=center;verticalAlign=middle;resizable=0;points=[];" vertex="1" connectable="0" parent="MK7afYL4_efToqdgsO7v-250">
          <mxGeometry x="0.0337" y="1" relative="1" as="geometry">
            <mxPoint as="offset" />
          </mxGeometry>
        </mxCell>
        <mxCell id="MK7afYL4_efToqdgsO7v-252" style="rounded=0;orthogonalLoop=1;jettySize=auto;html=1;dashed=1;dashPattern=8 8;exitX=0.5;exitY=0;exitDx=0;exitDy=0;entryX=0.5;entryY=1;entryDx=0;entryDy=0;" edge="1" parent="MK7afYL4_efToqdgsO7v-201" source="MK7afYL4_efToqdgsO7v-249" target="MK7afYL4_efToqdgsO7v-234">
          <mxGeometry relative="1" as="geometry">
            <mxPoint x="236" y="845" as="sourcePoint" />
            <mxPoint x="161" y="924" as="targetPoint" />
          </mxGeometry>
        </mxCell>
        <mxCell id="MK7afYL4_efToqdgsO7v-253" value="Extends" style="edgeLabel;html=1;align=center;verticalAlign=middle;resizable=0;points=[];" vertex="1" connectable="0" parent="MK7afYL4_efToqdgsO7v-252">
          <mxGeometry x="0.0337" y="1" relative="1" as="geometry">
            <mxPoint as="offset" />
          </mxGeometry>
        </mxCell>
        <mxCell id="MK7afYL4_efToqdgsO7v-254" style="rounded=0;orthogonalLoop=1;jettySize=auto;html=1;entryX=0.168;entryY=0.979;entryDx=0;entryDy=0;dashed=1;dashPattern=8 8;entryPerimeter=0;" edge="1" parent="MK7afYL4_efToqdgsO7v-201" source="MK7afYL4_efToqdgsO7v-256" target="MK7afYL4_efToqdgsO7v-249">
          <mxGeometry relative="1" as="geometry" />
        </mxCell>
        <mxCell id="MK7afYL4_efToqdgsO7v-255" value="extends" style="edgeLabel;html=1;align=center;verticalAlign=middle;resizable=0;points=[];" vertex="1" connectable="0" parent="MK7afYL4_efToqdgsO7v-254">
          <mxGeometry x="-0.0441" y="2" relative="1" as="geometry">
            <mxPoint as="offset" />
          </mxGeometry>
        </mxCell>
        <mxCell id="MK7afYL4_efToqdgsO7v-256" value="Lier un matériel" style="ellipse;whiteSpace=wrap;html=1;" vertex="1" parent="MK7afYL4_efToqdgsO7v-201">
          <mxGeometry x="60" y="1340" width="110" height="70" as="geometry" />
        </mxCell>
        <mxCell id="MK7afYL4_efToqdgsO7v-257" value="Gestion arrêt" style="ellipse;whiteSpace=wrap;html=1;" vertex="1" parent="MK7afYL4_efToqdgsO7v-201">
          <mxGeometry x="280" y="1210" width="110" height="70" as="geometry" />
        </mxCell>
        <mxCell id="MK7afYL4_efToqdgsO7v-258" style="rounded=0;orthogonalLoop=1;jettySize=auto;html=1;entryX=1;entryY=0.5;entryDx=0;entryDy=0;dashed=1;dashPattern=8 8;exitX=-0.02;exitY=0.411;exitDx=0;exitDy=0;exitPerimeter=0;" edge="1" parent="MK7afYL4_efToqdgsO7v-201" source="MK7afYL4_efToqdgsO7v-257" target="MK7afYL4_efToqdgsO7v-249">
          <mxGeometry relative="1" as="geometry">
            <mxPoint x="587" y="994" as="sourcePoint" />
            <mxPoint x="350" y="1035" as="targetPoint" />
          </mxGeometry>
        </mxCell>
        <mxCell id="MK7afYL4_efToqdgsO7v-259" value="extends" style="edgeLabel;html=1;align=center;verticalAlign=middle;resizable=0;points=[];" vertex="1" connectable="0" parent="MK7afYL4_efToqdgsO7v-258">
          <mxGeometry x="-0.0441" y="2" relative="1" as="geometry">
            <mxPoint as="offset" />
          </mxGeometry>
        </mxCell>
        <mxCell id="MK7afYL4_efToqdgsO7v-260" value="Lier un numero dossier" style="ellipse;whiteSpace=wrap;html=1;" vertex="1" parent="MK7afYL4_efToqdgsO7v-201">
          <mxGeometry x="590" y="970" width="110" height="70" as="geometry" />
        </mxCell>
        <mxCell id="MK7afYL4_efToqdgsO7v-261" style="rounded=0;orthogonalLoop=1;jettySize=auto;html=1;dashed=1;dashPattern=8 8;endArrow=classic;endFill=1;startArrow=none;startFill=0;exitX=1;exitY=1;exitDx=0;exitDy=0;" edge="1" parent="MK7afYL4_efToqdgsO7v-201" source="MK7afYL4_efToqdgsO7v-248" target="MK7afYL4_efToqdgsO7v-263">
          <mxGeometry relative="1" as="geometry">
            <mxPoint x="340" y="1132" as="sourcePoint" />
          </mxGeometry>
        </mxCell>
        <mxCell id="MK7afYL4_efToqdgsO7v-262" value="Include" style="edgeLabel;html=1;align=center;verticalAlign=middle;resizable=0;points=[];" vertex="1" connectable="0" parent="MK7afYL4_efToqdgsO7v-261">
          <mxGeometry x="-0.0249" relative="1" as="geometry">
            <mxPoint x="-1" as="offset" />
          </mxGeometry>
        </mxCell>
        <mxCell id="MK7afYL4_efToqdgsO7v-263" value="Lier un quai" style="ellipse;whiteSpace=wrap;html=1;" vertex="1" parent="MK7afYL4_efToqdgsO7v-201">
          <mxGeometry x="690" y="1020" width="110" height="70" as="geometry" />
        </mxCell>
        <mxCell id="MK7afYL4_efToqdgsO7v-264" style="rounded=0;orthogonalLoop=1;jettySize=auto;html=1;dashed=1;dashPattern=8 8;endArrow=classic;endFill=1;startArrow=none;startFill=0;exitX=1;exitY=1;exitDx=0;exitDy=0;" edge="1" parent="MK7afYL4_efToqdgsO7v-201" source="MK7afYL4_efToqdgsO7v-248" target="MK7afYL4_efToqdgsO7v-266">
          <mxGeometry relative="1" as="geometry">
            <mxPoint x="310" y="1182" as="sourcePoint" />
          </mxGeometry>
        </mxCell>
        <mxCell id="MK7afYL4_efToqdgsO7v-265" value="Include" style="edgeLabel;html=1;align=center;verticalAlign=middle;resizable=0;points=[];" vertex="1" connectable="0" parent="MK7afYL4_efToqdgsO7v-264">
          <mxGeometry x="-0.0249" relative="1" as="geometry">
            <mxPoint x="-1" as="offset" />
          </mxGeometry>
        </mxCell>
        <mxCell id="MK7afYL4_efToqdgsO7v-266" value="Lier un client" style="ellipse;whiteSpace=wrap;html=1;" vertex="1" parent="MK7afYL4_efToqdgsO7v-201">
          <mxGeometry x="590" y="1070" width="110" height="70" as="geometry" />
        </mxCell>
        <mxCell id="MK7afYL4_efToqdgsO7v-267" style="rounded=0;orthogonalLoop=1;jettySize=auto;html=1;dashed=1;dashPattern=8 8;endArrow=classic;endFill=1;startArrow=none;startFill=0;exitX=1;exitY=1;exitDx=0;exitDy=0;" edge="1" parent="MK7afYL4_efToqdgsO7v-201" source="MK7afYL4_efToqdgsO7v-248" target="MK7afYL4_efToqdgsO7v-269">
          <mxGeometry relative="1" as="geometry">
            <mxPoint x="215" y="1142" as="sourcePoint" />
          </mxGeometry>
        </mxCell>
        <mxCell id="MK7afYL4_efToqdgsO7v-268" value="Include" style="edgeLabel;html=1;align=center;verticalAlign=middle;resizable=0;points=[];" vertex="1" connectable="0" parent="MK7afYL4_efToqdgsO7v-267">
          <mxGeometry x="-0.0249" relative="1" as="geometry">
            <mxPoint x="-1" as="offset" />
          </mxGeometry>
        </mxCell>
        <mxCell id="MK7afYL4_efToqdgsO7v-269" value="Lier un produit" style="ellipse;whiteSpace=wrap;html=1;" vertex="1" parent="MK7afYL4_efToqdgsO7v-201">
          <mxGeometry x="465" y="1090" width="110" height="70" as="geometry" />
        </mxCell>
        <mxCell id="MK7afYL4_efToqdgsO7v-270" style="rounded=0;orthogonalLoop=1;jettySize=auto;html=1;dashed=1;dashPattern=8 8;" edge="1" parent="MK7afYL4_efToqdgsO7v-201" source="MK7afYL4_efToqdgsO7v-272" target="MK7afYL4_efToqdgsO7v-257">
          <mxGeometry relative="1" as="geometry" />
        </mxCell>
        <mxCell id="MK7afYL4_efToqdgsO7v-271" value="extends" style="edgeLabel;html=1;align=center;verticalAlign=middle;resizable=0;points=[];" vertex="1" connectable="0" parent="MK7afYL4_efToqdgsO7v-270">
          <mxGeometry x="0.0955" y="1" relative="1" as="geometry">
            <mxPoint as="offset" />
          </mxGeometry>
        </mxCell>
        <mxCell id="MK7afYL4_efToqdgsO7v-272" value="Ajout d&#39;un arrêt" style="ellipse;whiteSpace=wrap;html=1;" vertex="1" parent="MK7afYL4_efToqdgsO7v-201">
          <mxGeometry x="500" y="1210" width="90" height="70" as="geometry" />
        </mxCell>
        <mxCell id="MK7afYL4_efToqdgsO7v-273" style="rounded=0;orthogonalLoop=1;jettySize=auto;html=1;dashed=1;dashPattern=8 8;" edge="1" parent="MK7afYL4_efToqdgsO7v-201" source="MK7afYL4_efToqdgsO7v-275" target="MK7afYL4_efToqdgsO7v-257">
          <mxGeometry relative="1" as="geometry" />
        </mxCell>
        <mxCell id="MK7afYL4_efToqdgsO7v-274" value="extends" style="edgeLabel;html=1;align=center;verticalAlign=middle;resizable=0;points=[];" vertex="1" connectable="0" parent="MK7afYL4_efToqdgsO7v-273">
          <mxGeometry x="-0.1757" y="5" relative="1" as="geometry">
            <mxPoint as="offset" />
          </mxGeometry>
        </mxCell>
        <mxCell id="MK7afYL4_efToqdgsO7v-275" value="Modifier information arrêt" style="ellipse;whiteSpace=wrap;html=1;" vertex="1" parent="MK7afYL4_efToqdgsO7v-201">
          <mxGeometry x="440" y="1300" width="90" height="70" as="geometry" />
        </mxCell>
        <mxCell id="MK7afYL4_efToqdgsO7v-276" style="rounded=0;orthogonalLoop=1;jettySize=auto;html=1;entryX=0.5;entryY=1;entryDx=0;entryDy=0;dashed=1;dashPattern=8 8;" edge="1" parent="MK7afYL4_efToqdgsO7v-201" source="MK7afYL4_efToqdgsO7v-278" target="MK7afYL4_efToqdgsO7v-257">
          <mxGeometry relative="1" as="geometry" />
        </mxCell>
        <mxCell id="MK7afYL4_efToqdgsO7v-277" value="extends" style="edgeLabel;html=1;align=center;verticalAlign=middle;resizable=0;points=[];" vertex="1" connectable="0" parent="MK7afYL4_efToqdgsO7v-276">
          <mxGeometry x="-0.0102" y="3" relative="1" as="geometry">
            <mxPoint as="offset" />
          </mxGeometry>
        </mxCell>
        <mxCell id="MK7afYL4_efToqdgsO7v-278" value="lister les arrêts" style="ellipse;whiteSpace=wrap;html=1;" vertex="1" parent="MK7afYL4_efToqdgsO7v-201">
          <mxGeometry x="310" y="1370" width="90" height="70" as="geometry" />
        </mxCell>
        <mxCell id="MK7afYL4_efToqdgsO7v-279" style="rounded=0;orthogonalLoop=1;jettySize=auto;html=1;entryX=1;entryY=1;entryDx=0;entryDy=0;dashed=1;dashPattern=8 8;" edge="1" parent="MK7afYL4_efToqdgsO7v-201" source="MK7afYL4_efToqdgsO7v-281" target="MK7afYL4_efToqdgsO7v-278">
          <mxGeometry relative="1" as="geometry" />
        </mxCell>
        <mxCell id="MK7afYL4_efToqdgsO7v-280" value="extends" style="edgeLabel;html=1;align=center;verticalAlign=middle;resizable=0;points=[];" vertex="1" connectable="0" parent="MK7afYL4_efToqdgsO7v-279">
          <mxGeometry x="0.0176" y="2" relative="1" as="geometry">
            <mxPoint y="-1" as="offset" />
          </mxGeometry>
        </mxCell>
        <mxCell id="MK7afYL4_efToqdgsO7v-281" value="voir information d&#39;un arrêt" style="ellipse;whiteSpace=wrap;html=1;" vertex="1" parent="MK7afYL4_efToqdgsO7v-201">
          <mxGeometry x="490" y="1460" width="90" height="70" as="geometry" />
        </mxCell>
        <mxCell id="MK7afYL4_efToqdgsO7v-291" style="rounded=0;orthogonalLoop=1;jettySize=auto;html=1;entryX=0.5;entryY=1;entryDx=0;entryDy=0;dashed=1;" edge="1" parent="MK7afYL4_efToqdgsO7v-201" source="MK7afYL4_efToqdgsO7v-290" target="MK7afYL4_efToqdgsO7v-202">
          <mxGeometry relative="1" as="geometry" />
        </mxCell>
        <mxCell id="MK7afYL4_efToqdgsO7v-292" value="extends" style="edgeLabel;html=1;align=center;verticalAlign=middle;resizable=0;points=[];" vertex="1" connectable="0" parent="MK7afYL4_efToqdgsO7v-291">
          <mxGeometry x="-0.0691" y="2" relative="1" as="geometry">
            <mxPoint as="offset" />
          </mxGeometry>
        </mxCell>
        <mxCell id="MK7afYL4_efToqdgsO7v-290" value="Supprimer navire" style="ellipse;whiteSpace=wrap;html=1;" vertex="1" parent="MK7afYL4_efToqdgsO7v-201">
          <mxGeometry x="130" y="220" width="80" height="50" as="geometry" />
        </mxCell>
        <mxCell id="MK7afYL4_efToqdgsO7v-294" style="rounded=0;orthogonalLoop=1;jettySize=auto;html=1;entryX=0.5;entryY=0;entryDx=0;entryDy=0;dashed=1;dashPattern=8 8;" edge="1" parent="MK7afYL4_efToqdgsO7v-201" source="MK7afYL4_efToqdgsO7v-293" target="MK7afYL4_efToqdgsO7v-211">
          <mxGeometry relative="1" as="geometry" />
        </mxCell>
        <mxCell id="MK7afYL4_efToqdgsO7v-295" value="extends" style="edgeLabel;html=1;align=center;verticalAlign=middle;resizable=0;points=[];" vertex="1" connectable="0" parent="MK7afYL4_efToqdgsO7v-294">
          <mxGeometry x="-0.2754" y="2" relative="1" as="geometry">
            <mxPoint as="offset" />
          </mxGeometry>
        </mxCell>
        <mxCell id="MK7afYL4_efToqdgsO7v-293" value="Supprimer numéro" style="ellipse;whiteSpace=wrap;html=1;" vertex="1" parent="MK7afYL4_efToqdgsO7v-201">
          <mxGeometry x="385" y="190" width="80" height="50" as="geometry" />
        </mxCell>
        <mxCell id="MK7afYL4_efToqdgsO7v-296" value="Supprimer navire" style="ellipse;whiteSpace=wrap;html=1;" vertex="1" parent="MK7afYL4_efToqdgsO7v-201">
          <mxGeometry x="240" y="380" width="80" height="50" as="geometry" />
        </mxCell>
        <mxCell id="MK7afYL4_efToqdgsO7v-282" value="Administrateur" style="shape=umlActor;verticalLabelPosition=bottom;verticalAlign=top;html=1;" vertex="1" parent="1">
          <mxGeometry x="3850" y="840" width="30" height="60" as="geometry" />
        </mxCell>
        <mxCell id="MK7afYL4_efToqdgsO7v-283" style="rounded=0;orthogonalLoop=1;jettySize=auto;html=1;entryX=0.5;entryY=0;entryDx=0;entryDy=0;entryPerimeter=0;endArrow=none;endFill=0;" edge="1" parent="1" source="MK7afYL4_efToqdgsO7v-202" target="MK7afYL4_efToqdgsO7v-282">
          <mxGeometry relative="1" as="geometry" />
        </mxCell>
        <mxCell id="MK7afYL4_efToqdgsO7v-284" style="rounded=0;orthogonalLoop=1;jettySize=auto;html=1;endArrow=none;endFill=0;" edge="1" parent="1" source="MK7afYL4_efToqdgsO7v-234" target="MK7afYL4_efToqdgsO7v-282">
          <mxGeometry relative="1" as="geometry" />
        </mxCell>
        <mxCell id="MK7afYL4_efToqdgsO7v-285" style="rounded=0;orthogonalLoop=1;jettySize=auto;html=1;dashed=1;dashPattern=8 8;exitX=0;exitY=0.5;exitDx=0;exitDy=0;" edge="1" parent="1" source="MK7afYL4_efToqdgsO7v-207">
          <mxGeometry relative="1" as="geometry">
            <mxPoint x="4313" y="415" as="sourcePoint" />
            <mxPoint x="4190" y="450" as="targetPoint" />
          </mxGeometry>
        </mxCell>
        <mxCell id="MK7afYL4_efToqdgsO7v-286" value="Extends" style="edgeLabel;html=1;align=center;verticalAlign=middle;resizable=0;points=[];" vertex="1" connectable="0" parent="MK7afYL4_efToqdgsO7v-285">
          <mxGeometry x="0.0337" y="1" relative="1" as="geometry">
            <mxPoint as="offset" />
          </mxGeometry>
        </mxCell>
        <mxCell id="MK7afYL4_efToqdgsO7v-287" style="rounded=0;orthogonalLoop=1;jettySize=auto;html=1;entryX=1;entryY=0.3333333333333333;entryDx=0;entryDy=0;entryPerimeter=0;endArrow=none;endFill=0;" edge="1" parent="1" source="MK7afYL4_efToqdgsO7v-211" target="MK7afYL4_efToqdgsO7v-282">
          <mxGeometry relative="1" as="geometry" />
        </mxCell>
        <mxCell id="MK7afYL4_efToqdgsO7v-288" style="rounded=0;orthogonalLoop=1;jettySize=auto;html=1;endArrow=none;endFill=0;" edge="1" parent="1" source="MK7afYL4_efToqdgsO7v-224" target="MK7afYL4_efToqdgsO7v-282">
          <mxGeometry relative="1" as="geometry" />
        </mxCell>
        <mxCell id="MK7afYL4_efToqdgsO7v-289" style="edgeStyle=orthogonalEdgeStyle;rounded=0;orthogonalLoop=1;jettySize=auto;html=1;exitX=0.5;exitY=0.5;exitDx=0;exitDy=0;exitPerimeter=0;entryX=1;entryY=0.3333333333333333;entryDx=0;entryDy=0;entryPerimeter=0;" edge="1" parent="1" source="MK7afYL4_efToqdgsO7v-282" target="MK7afYL4_efToqdgsO7v-282">
          <mxGeometry relative="1" as="geometry" />
        </mxCell>
      </root>
    </mxGraphModel>
  </diagram>
</mxfile>
